<svg width="213" height="60" viewBox="0 0 213 60" fill="none" xmlns="http://www.w3.org/2000/svg">
<rect x="0.5" y="0.5" width="212" height="59" rx="2.5" fill="white"/>
<rect x="0.5" y="0.5" width="212" height="59" rx="2.5" stroke="#D9D9D9"/>
<path d="M77.0277 42.2407C75.4697 42.2407 74.1627 41.7131 73.1076 40.6571C72.0525 39.6015 71.5248 38.2843 71.5248 36.7055C71.5248 35.1271 72.0525 33.8099 73.1076 32.7539C74.1627 31.6987 75.4697 31.1703 77.0277 31.1703C78.6253 31.1703 79.9219 31.7479 80.9182 32.9019L79.9715 33.8195C79.2514 32.9219 78.2703 32.4727 77.0277 32.4727C75.8739 32.4727 74.8999 32.8627 74.1063 33.6419C73.3123 34.4215 72.9153 35.4427 72.9153 36.7055C72.9153 37.9687 73.3123 38.9899 74.1063 39.7691C74.8999 40.5491 75.8739 40.9383 77.0277 40.9383C78.2999 40.9383 79.385 40.4255 80.2821 39.3991L81.2289 40.3467C80.7455 40.9287 80.139 41.3899 79.4094 41.7303C78.6793 42.0703 77.8857 42.2407 77.0277 42.2407Z" fill="#5F6368"/>
<path d="M83.9906 31.4071V34.7519L83.9314 35.7583H83.9906C84.1877 35.4131 84.4983 35.1195 84.9225 34.8779C85.3463 34.6359 85.8001 34.5155 86.2835 34.5155C87.1806 34.5155 87.8663 34.7915 88.3397 35.3439C88.813 35.8967 89.0497 36.6367 89.0497 37.5643V42.0039H87.6888V37.7711C87.6888 36.4295 87.0919 35.7583 85.8988 35.7583C85.3367 35.7583 84.8781 35.9827 84.5231 36.4319C84.1681 36.8811 83.9906 37.4011 83.9906 37.9931V42.0039H82.6296V31.4071H83.9906Z" fill="#5F6368"/>
<path d="M91.9712 42.004H90.6102V34.752H91.912V35.936H91.9712C92.1091 35.5416 92.3926 35.2156 92.8216 34.9592C93.2506 34.7028 93.6672 34.5744 94.0718 34.5744C94.476 34.5744 94.8162 34.6336 95.0925 34.752L94.5747 36.0248C94.3972 35.956 94.1553 35.9212 93.8499 35.9212C93.3565 35.9212 92.9203 36.116 92.5405 36.506C92.1611 36.8956 91.9712 37.4064 91.9712 38.0376V42.004Z" fill="#5F6368"/>
<path d="M97.3586 40.2798C97.8267 40.7582 98.3817 40.9978 99.023 40.9978C99.6638 40.9978 100.218 40.7582 100.687 40.2798C101.156 39.8014 101.39 39.1678 101.39 38.3778C101.39 37.5886 101.156 36.9546 100.687 36.4762C100.218 35.9978 99.6638 35.7582 99.023 35.7582C98.3817 35.7582 97.8267 35.9978 97.3586 36.4762C96.8904 36.9546 96.6561 37.5886 96.6561 38.3778C96.6561 39.1678 96.8904 39.8014 97.3586 40.2798ZM96.3455 35.6178C97.0455 34.883 97.9379 34.5154 99.023 34.5154C100.108 34.5154 101 34.883 101.7 35.6178C102.401 36.353 102.751 37.273 102.751 38.3778C102.751 39.4834 102.401 40.4034 101.7 41.1382C101 41.8734 100.108 42.2406 99.023 42.2406C97.9379 42.2406 97.0455 41.8734 96.3455 41.1382C95.645 40.4034 95.2952 39.4834 95.2952 38.3778C95.2952 37.273 95.645 36.353 96.3455 35.6178Z" fill="#5F6368"/>
<path d="M104.145 42.004V34.752H105.447V35.7584H105.506C105.713 35.4128 106.032 35.1196 106.461 34.878C106.89 34.636 107.316 34.5152 107.74 34.5152C108.864 34.5152 109.628 34.9792 110.033 35.9064C110.625 34.9792 111.468 34.5152 112.563 34.5152C113.421 34.5152 114.067 34.7892 114.5 35.3364C114.935 35.884 115.151 36.6268 115.151 37.564V42.004H113.791V37.7712C113.791 37.0412 113.658 36.5232 113.391 36.2172C113.125 35.9116 112.72 35.7584 112.178 35.7584C111.645 35.7584 111.204 35.9856 110.854 36.4392C110.504 36.8932 110.329 37.4112 110.329 37.9932V42.004H108.968V37.7712C108.968 37.0412 108.835 36.5232 108.568 36.2172C108.303 35.9116 107.898 35.7584 107.355 35.7584C106.823 35.7584 106.382 35.9856 106.032 36.4392C105.681 36.8932 105.506 37.4112 105.506 37.9932V42.004H104.145Z" fill="#5F6368"/>
<path d="M122.178 37.5048C122.148 37.0904 121.958 36.696 121.608 36.3208C121.258 35.946 120.738 35.7584 120.048 35.7584C119.545 35.7584 119.108 35.9164 118.738 36.232C118.369 36.5476 118.115 36.972 117.977 37.5048H122.178ZM120.225 42.2408C119.131 42.2408 118.24 41.876 117.555 41.1456C116.87 40.4156 116.527 39.4932 116.527 38.378C116.527 37.3224 116.86 36.4144 117.525 35.6548C118.191 34.8952 119.042 34.5152 120.077 34.5152C121.152 34.5152 122.013 34.8656 122.658 35.566C123.304 36.2664 123.628 37.204 123.628 38.378L123.613 38.63H117.888C117.927 39.36 118.171 39.9372 118.62 40.3612C119.069 40.7856 119.594 40.9976 120.196 40.9976C121.172 40.9976 121.833 40.5832 122.178 39.7544L123.391 40.2576C123.154 40.82 122.765 41.2912 122.222 41.6712C121.68 42.0508 121.014 42.2408 120.225 42.2408Z" fill="#5F6368"/>
<path d="M140.206 31.4071L137.38 42.0039H135.989L133.712 35.0183H133.652L131.374 42.0039H129.984L127.04 31.4071H128.46L130.694 39.7395H130.753L133.046 32.8279H134.318L136.611 39.7395H136.67L138.785 31.4071H140.206Z" fill="#5F6368"/>
<path d="M145.924 37.5048C145.895 37.0904 145.705 36.696 145.354 36.3208C145.005 35.946 144.484 35.7584 143.794 35.7584C143.291 35.7584 142.854 35.9164 142.485 36.232C142.115 36.5476 141.861 36.972 141.723 37.5048H145.924ZM143.971 42.2408C142.877 42.2408 141.986 41.876 141.301 41.1456C140.616 40.4156 140.273 39.4932 140.273 38.378C140.273 37.3224 140.606 36.4144 141.272 35.6548C141.937 34.8952 142.788 34.5152 143.824 34.5152C144.899 34.5152 145.759 34.8656 146.405 35.566C147.05 36.2664 147.374 37.204 147.374 38.378L147.359 38.63H141.635C141.673 39.36 141.918 39.9372 142.367 40.3612C142.815 40.7856 143.34 40.9976 143.942 40.9976C144.918 40.9976 145.579 40.5832 145.924 39.7544L147.137 40.2576C146.9 40.82 146.511 41.2912 145.969 41.6712C145.426 42.0508 144.76 42.2408 143.971 42.2408Z" fill="#5F6368"/>
<path d="M152.382 40.9977C153.013 40.9977 153.556 40.7581 154.009 40.2797C154.463 39.8013 154.69 39.1677 154.69 38.3777C154.69 37.5889 154.463 36.9549 154.009 36.4761C153.556 35.9977 153.013 35.7581 152.382 35.7581C151.741 35.7581 151.196 35.9949 150.748 36.4689C150.299 36.9421 150.075 37.5785 150.075 38.3777C150.075 39.1769 150.299 39.8137 150.748 40.2873C151.196 40.7605 151.741 40.9977 152.382 40.9977ZM152.604 42.2405C152.052 42.2405 151.557 42.1225 151.118 41.8857C150.679 41.6489 150.351 41.3529 150.134 40.9977H150.075V42.0041H148.773V31.4069H150.134V34.7521L150.075 35.7581H150.134C150.351 35.4033 150.679 35.1069 151.118 34.8705C151.557 34.6337 152.052 34.5153 152.604 34.5153C153.541 34.5153 154.35 34.8853 155.03 35.6249C155.711 36.3653 156.051 37.2829 156.051 38.3777C156.051 39.4729 155.711 40.3905 155.03 41.1309C154.35 41.8709 153.541 42.2405 152.604 42.2405Z" fill="#5F6368"/>
<path d="M163.378 42.2407C162.609 42.2407 161.857 41.9891 161.122 41.4859C160.388 40.9827 159.907 40.2775 159.68 39.3695L160.923 38.8663C161.071 39.4487 161.374 39.9395 161.833 40.3391C162.291 40.7387 162.806 40.9383 163.378 40.9383C163.97 40.9383 164.475 40.7827 164.895 40.4723C165.314 40.1615 165.523 39.7395 165.523 39.2067C165.523 38.6151 165.314 38.1587 164.895 37.8379C164.475 37.5171 163.812 37.2187 162.905 36.9423C161.968 36.6467 161.258 36.2643 160.775 35.7955C160.291 35.3271 160.05 34.7275 160.05 33.9975C160.05 33.2375 160.351 32.5763 160.953 32.0143C161.554 31.4515 162.338 31.1703 163.304 31.1703C164.202 31.1703 164.932 31.3951 165.494 31.8439C166.056 32.2931 166.42 32.7835 166.588 33.3163L165.346 33.8343C165.257 33.4991 165.038 33.1883 164.687 32.9019C164.338 32.6159 163.887 32.4727 163.334 32.4727C162.811 32.4727 162.365 32.6183 161.995 32.9095C161.626 33.2003 161.441 33.5631 161.441 33.9975C161.441 34.3919 161.611 34.7251 161.951 34.9963C162.291 35.2675 162.791 35.5119 163.453 35.7287C163.975 35.8967 164.411 36.0595 164.762 36.2171C165.112 36.3751 165.467 36.5847 165.827 36.8463C166.187 37.1079 166.458 37.4331 166.64 37.8231C166.823 38.2131 166.914 38.6643 166.914 39.1771C166.914 39.6903 166.808 40.1491 166.596 40.5535C166.384 40.9583 166.103 41.2787 165.752 41.5159C165.402 41.7523 165.025 41.9323 164.621 42.0559C164.217 42.1791 163.803 42.2407 163.378 42.2407Z" fill="#5F6368"/>
<path d="M171.364 42.1224C170.604 42.1224 170.025 41.9204 169.625 41.5156C169.226 41.1112 169.026 40.5388 169.026 39.7988V35.9952H167.754V34.752H169.026V32.532H170.387V34.752H172.162V35.9952H170.387V39.6952C170.387 40.4848 170.713 40.8796 171.364 40.8796C171.61 40.8796 171.817 40.84 171.985 40.7608L172.458 41.9304C172.162 42.0584 171.797 42.1224 171.364 42.1224Z" fill="#5F6368"/>
<path d="M175.089 40.2798C175.558 40.7582 176.112 40.9978 176.754 40.9978C177.395 40.9978 177.949 40.7582 178.418 40.2798C178.886 39.8014 179.12 39.1678 179.12 38.3778C179.12 37.5886 178.886 36.9546 178.418 36.4762C177.949 35.9978 177.395 35.7582 176.754 35.7582C176.112 35.7582 175.558 35.9978 175.089 36.4762C174.621 36.9546 174.387 37.5886 174.387 38.3778C174.387 39.1678 174.621 39.8014 175.089 40.2798ZM174.076 35.6178C174.776 34.883 175.669 34.5154 176.754 34.5154C177.838 34.5154 178.731 34.883 179.431 35.6178C180.131 36.353 180.481 37.273 180.481 38.3778C180.481 39.4834 180.131 40.4034 179.431 41.1382C178.731 41.8734 177.838 42.2406 176.754 42.2406C175.669 42.2406 174.776 41.8734 174.076 41.1382C173.376 40.4034 173.026 39.4834 173.026 38.3778C173.026 37.273 173.376 36.353 174.076 35.6178Z" fill="#5F6368"/>
<path d="M183.028 42.004H181.667V34.752H182.969V35.936H183.028C183.166 35.5416 183.449 35.2156 183.878 34.9592C184.307 34.7028 184.724 34.5744 185.129 34.5744C185.533 34.5744 185.873 34.6336 186.149 34.752L185.632 36.0248C185.454 35.956 185.212 35.9212 184.906 35.9212C184.413 35.9212 183.977 36.116 183.597 36.506C183.217 36.8956 183.028 37.4064 183.028 38.0376V42.004Z" fill="#5F6368"/>
<path d="M191.829 37.5048C191.8 37.0904 191.61 36.696 191.259 36.3208C190.91 35.946 190.389 35.7584 189.699 35.7584C189.196 35.7584 188.759 35.9164 188.39 36.232C188.02 36.5476 187.766 36.972 187.628 37.5048H191.829ZM189.877 42.2408C188.782 42.2408 187.891 41.876 187.206 41.1456C186.521 40.4156 186.178 39.4932 186.178 38.378C186.178 37.3224 186.511 36.4144 187.177 35.6548C187.842 34.8952 188.693 34.5152 189.729 34.5152C190.804 34.5152 191.664 34.8656 192.31 35.566C192.955 36.2664 193.279 37.204 193.279 38.378L193.264 38.63H187.54C187.578 39.36 187.823 39.9372 188.272 40.3612C188.72 40.7856 189.245 40.9976 189.847 40.9976C190.823 40.9976 191.484 40.5832 191.829 39.7544L193.042 40.2576C192.806 40.82 192.416 41.2912 191.874 41.6712C191.331 42.0508 190.665 42.2408 189.877 42.2408Z" fill="#5F6368"/>
<path d="M74.5901 22.5567H77.2544L75.9446 18.9391H75.8998L74.5901 22.5567ZM72.3176 25.6927L75.3401 17.6735H76.5043L79.5269 25.6927H78.385L77.6126 23.5199H74.243L73.4594 25.6927H72.3176Z" fill="#5F6368"/>
<path d="M81.467 25.6926L79.2505 20.2046H80.3699L81.982 24.4606H82.0043L83.6388 20.2046H84.7358L82.4969 25.6926H81.467Z" fill="#5F6368"/>
<path d="M87.2192 24.9309C87.6446 24.9309 88.0308 24.7725 88.3779 24.4553C88.7249 24.1381 88.8984 23.7625 88.8984 23.3293C88.6074 23.0905 88.1708 22.9713 87.5887 22.9713C87.0885 22.9713 86.7115 23.0793 86.458 23.2957C86.2041 23.5125 86.0774 23.7661 86.0774 24.0573C86.0774 24.3261 86.1929 24.5393 86.4244 24.6957C86.6555 24.8529 86.9206 24.9309 87.2192 24.9309ZM87.0513 25.8721C86.4692 25.8721 85.9822 25.7041 85.5904 25.3681C85.1986 25.0317 85.0027 24.5877 85.0027 24.0353C85.0027 23.4381 85.2338 22.9693 85.6968 22.6293C86.1594 22.2897 86.7303 22.1201 87.4095 22.1201C88.0141 22.1201 88.5102 22.2317 88.8984 22.4561V22.2989C88.8984 21.8957 88.7601 21.5729 88.4842 21.3301C88.208 21.0877 87.8685 20.9661 87.4655 20.9661C87.1669 20.9661 86.8962 21.0373 86.6539 21.1789C86.4112 21.3213 86.2453 21.5149 86.1558 21.7613L85.2154 21.3581C85.3421 21.0297 85.592 20.7253 85.9654 20.4453C86.3385 20.1653 86.831 20.0253 87.4431 20.0253C88.1444 20.0253 88.7265 20.2309 89.1895 20.6413C89.6521 21.0521 89.8835 21.6309 89.8835 22.3773V25.6925H88.8984V24.9309H88.8536C88.443 25.5581 87.8421 25.8721 87.0513 25.8721Z" fill="#5F6368"/>
<path d="M92.2714 25.6924H91.2415V20.2044H92.2714V25.6924ZM92.2714 18.8268C92.1294 18.9688 91.9579 19.04 91.7564 19.04C91.5549 19.04 91.383 18.9688 91.2415 18.8268C91.0995 18.6852 91.0284 18.5132 91.0284 18.3116C91.0284 18.11 91.0995 17.9388 91.2415 17.7964C91.383 17.6548 91.5549 17.5836 91.7564 17.5836C91.9579 17.5836 92.1294 17.6548 92.2714 17.7964C92.4129 17.9388 92.484 18.11 92.484 18.3116C92.484 18.5132 92.4129 18.6852 92.2714 18.8268Z" fill="#5F6368"/>
<path d="M94.6442 25.6924H93.6143V17.6732H94.6442V25.6924Z" fill="#5F6368"/>
<path d="M97.9328 24.9309C98.3582 24.9309 98.7444 24.7725 99.0914 24.4553C99.4384 24.1381 99.6119 23.7625 99.6119 23.3293C99.3209 23.0905 98.8843 22.9713 98.3022 22.9713C97.802 22.9713 97.425 23.0793 97.1715 23.2957C96.9177 23.5125 96.7909 23.7661 96.7909 24.0573C96.7909 24.3261 96.9065 24.5393 97.1379 24.6957C97.369 24.8529 97.6341 24.9309 97.9328 24.9309ZM97.7648 25.8721C97.1827 25.8721 96.6958 25.7041 96.304 25.3681C95.9121 25.0317 95.7162 24.5877 95.7162 24.0353C95.7162 23.4381 95.9473 22.9693 96.4103 22.6293C96.8729 22.2897 97.4438 22.1201 98.1231 22.1201C98.7276 22.1201 99.2237 22.2317 99.6119 22.4561V22.2989C99.6119 21.8957 99.4736 21.5729 99.1977 21.3301C98.9215 21.0877 98.582 20.9661 98.179 20.9661C97.8804 20.9661 97.6097 21.0373 97.3674 21.1789C97.1248 21.3213 96.9588 21.5149 96.8693 21.7613L95.9289 21.3581C96.0557 21.0297 96.3056 20.7253 96.679 20.4453C97.052 20.1653 97.5445 20.0253 98.1567 20.0253C98.8579 20.0253 99.44 20.2309 99.903 20.6413C100.366 21.0521 100.597 21.6309 100.597 22.3773V25.6925H99.6119V24.9309H99.5672C99.1566 25.5581 98.5557 25.8721 97.7648 25.8721Z" fill="#5F6368"/>
<path d="M104.472 24.9309C104.949 24.9309 105.36 24.7501 105.703 24.3881C106.046 24.0257 106.218 23.5461 106.218 22.9485C106.218 22.3513 106.046 21.8717 105.703 21.5093C105.36 21.1473 104.949 20.9661 104.472 20.9661C103.987 20.9661 103.574 21.1453 103.235 21.5041C102.895 21.8621 102.725 22.3437 102.725 22.9485C102.725 23.5537 102.895 24.0353 103.235 24.3933C103.574 24.7521 103.987 24.9309 104.472 24.9309ZM104.64 25.8721C104.222 25.8721 103.847 25.7821 103.515 25.6033C103.182 25.4237 102.934 25.1997 102.77 24.9309H102.725V25.6925H101.74V17.6733H102.77V20.2049L102.725 20.9661H102.77C102.934 20.6973 103.182 20.4733 103.515 20.2941C103.847 20.1149 104.222 20.0253 104.64 20.0253C105.349 20.0253 105.961 20.3057 106.476 20.8653C106.991 21.4253 107.248 22.1201 107.248 22.9485C107.248 23.7773 106.991 24.4721 106.476 25.0317C105.961 25.5917 105.349 25.8721 104.64 25.8721Z" fill="#5F6368"/>
<path d="M109.245 25.6924H108.216V17.6732H109.245V25.6924Z" fill="#5F6368"/>
<path d="M114.407 22.2879C114.384 21.9743 114.24 21.6759 113.976 21.3919C113.711 21.1083 113.316 20.9659 112.795 20.9659C112.414 20.9659 112.083 21.0855 111.803 21.3247C111.524 21.5635 111.332 21.8847 111.227 22.2879H114.407ZM112.929 25.8719C112.1 25.8719 111.427 25.5959 110.908 25.0431C110.389 24.4907 110.13 23.7927 110.13 22.9483C110.13 22.1495 110.382 21.4627 110.885 20.8879C111.389 20.3131 112.033 20.0255 112.817 20.0255C113.63 20.0255 114.281 20.2907 114.77 20.8207C115.259 21.3507 115.503 22.0603 115.503 22.9483L115.492 23.1391H111.16C111.19 23.6919 111.374 24.1287 111.714 24.4491C112.053 24.7703 112.451 24.9307 112.906 24.9307C113.645 24.9307 114.145 24.6171 114.407 23.9903L115.325 24.3711C115.145 24.7963 114.85 25.1531 114.44 25.4407C114.03 25.7279 113.526 25.8719 112.929 25.8719Z" fill="#5F6368"/>
<path d="M120.277 25.6924H119.247V20.2044H120.277V25.6924ZM120.277 18.8268C120.135 18.9688 119.963 19.04 119.762 19.04C119.56 19.04 119.388 18.9688 119.247 18.8268C119.105 18.6852 119.034 18.5132 119.034 18.3116C119.034 18.11 119.105 17.9388 119.247 17.7964C119.388 17.6548 119.56 17.5836 119.762 17.5836C119.963 17.5836 120.135 17.6548 120.277 17.7964C120.418 17.9388 120.489 18.11 120.489 18.3116C120.489 18.5132 120.418 18.6852 120.277 18.8268Z" fill="#5F6368"/>
<path d="M122.605 20.2047V20.9659H122.649C122.799 20.7051 123.034 20.4827 123.355 20.2995C123.675 20.1167 124.019 20.0255 124.385 20.0255C125.063 20.0255 125.582 20.2343 125.941 20.6527C126.299 21.0707 126.478 21.6307 126.478 22.3323V25.6927H125.448V22.4895C125.448 21.4743 124.996 20.9659 124.093 20.9659C123.668 20.9659 123.321 21.1359 123.052 21.4759C122.784 21.8155 122.649 22.2095 122.649 22.6575V25.6927H121.619V20.2047H122.605Z" fill="#5F6368"/>
<path d="M132.766 25.7821C132.191 25.7821 131.753 25.6293 131.45 25.3233C131.148 25.0169 130.997 24.5837 130.997 24.0237V21.1453H130.034V20.2049H130.997V18.5245H132.027V20.2049H133.37V21.1453H132.027V23.9453C132.027 24.5429 132.273 24.8413 132.766 24.8413C132.952 24.8413 133.109 24.8117 133.236 24.7521L133.594 25.6369C133.37 25.7337 133.094 25.7821 132.766 25.7821Z" fill="#5F6368"/>
<path d="M135.441 17.6735V20.2047L135.397 20.9659H135.441C135.59 20.7051 135.826 20.4827 136.147 20.2995C136.467 20.1167 136.811 20.0255 137.176 20.0255C137.855 20.0255 138.374 20.2343 138.732 20.6527C139.091 21.0707 139.269 21.6311 139.269 22.3323V25.6927H138.24V22.4895C138.24 21.4743 137.788 20.9659 136.885 20.9659C136.46 20.9659 136.113 21.1359 135.844 21.4759C135.576 21.8155 135.441 22.2095 135.441 22.6575V25.6927H134.411V17.6735H135.441Z" fill="#5F6368"/>
<path d="M144.442 22.2879C144.419 21.9743 144.275 21.6759 144.011 21.3919C143.746 21.1083 143.351 20.9659 142.83 20.9659C142.449 20.9659 142.118 21.0855 141.838 21.3247C141.559 21.5635 141.367 21.8847 141.262 22.2879H144.442ZM142.964 25.8719C142.135 25.8719 141.462 25.5959 140.943 25.0431C140.424 24.4907 140.165 23.7927 140.165 22.9483C140.165 22.1495 140.417 21.4627 140.921 20.8879C141.424 20.3131 142.068 20.0255 142.852 20.0255C143.665 20.0255 144.316 20.2907 144.805 20.8207C145.294 21.3507 145.538 22.0603 145.538 22.9483L145.527 23.1391H141.195C141.225 23.6919 141.409 24.1287 141.749 24.4491C142.088 24.7703 142.486 24.9307 142.941 24.9307C143.68 24.9307 144.18 24.6171 144.442 23.9903L145.36 24.3711C145.18 24.7963 144.885 25.1531 144.475 25.4407C144.065 25.7279 143.561 25.8719 142.964 25.8719Z" fill="#5F6368"/>
<g clip-path="url(#clip0_11_3)">
<path d="M16.4273 10.964V46.0304C16.4273 47.684 17.7795 49.0364 19.4319 49.0364H57.4858C59.1382 49.0364 60.4903 47.684 60.4903 46.0304V10.964H16.4273ZM31.4488 16.9752C31.4488 15.868 32.3452 14.9712 33.4519 14.9712H43.4662C44.5725 14.9712 45.4692 15.868 45.4692 16.9752C45.4692 18.082 44.5725 18.9788 43.4662 18.9788H33.4519C32.3452 18.9788 31.4488 18.082 31.4488 16.9752Z" fill="#EEEEEE"/>
<mask id="mask0_11_3" style="mask-type:alpha" maskUnits="userSpaceOnUse" x="19" y="26" width="39" height="40">
<path d="M19.432 46.0309C19.432 35.5174 27.9508 26.9944 38.4592 26.9944C48.9677 26.9944 57.4865 35.5174 57.4865 46.0309C57.4865 56.5445 48.9677 65.0674 38.4592 65.0674C27.9508 65.0674 19.432 56.5445 19.432 46.0309Z" fill="#F1F1F1"/>
</mask>
<g mask="url(#mask0_11_3)">
<path d="M22.4537 26.9944V50.3564H30.9684L38.4592 37.3768H57.4863V26.9944H22.4537ZM22.4537 26.9944V50.3564H30.9684L38.4592 37.3768H57.4863V26.9944H22.4537Z" fill="#DB4437"/>
<path d="M19.432 65.067H37.5428L45.9499 56.6558V50.3586L30.9684 50.3562L19.432 30.5606V65.067ZM19.432 65.067H37.5428L45.9499 56.6558V50.3586L30.9684 50.3562L19.432 30.5606V65.067Z" fill="#0F9D58"/>
<path d="M38.459 37.3767L45.9498 50.3563L37.5451 65.0675H57.4862V37.3767H38.459ZM38.459 37.3767L45.9498 50.3563L37.5451 65.0675H57.4862V37.3767H38.459Z" fill="#FFCD40"/>
<path d="M38.459 37.3766C43.2363 37.3766 47.1088 41.2514 47.1088 46.0306C47.1088 50.8102 43.2363 54.685 38.459 54.685C33.6818 54.685 29.8092 50.8102 29.8092 46.0306C29.8092 41.2514 33.6818 37.3766 38.459 37.3766Z" fill="white"/>
<path d="M38.459 39.1075C42.2808 39.1075 45.3789 42.2071 45.3789 46.0307C45.3789 49.8543 42.2808 52.9539 38.459 52.9539C34.6373 52.9539 31.5392 49.8543 31.5392 46.0307C31.5392 42.2071 34.6373 39.1075 38.459 39.1075Z" fill="#4285F4"/>
</g>
<path opacity="0.0500031" fill-rule="evenodd" clip-rule="evenodd" d="M60.4907 10.9636H16.4277V30H60.4907V10.9636ZM33.4519 14.9712C32.3452 14.9712 31.4488 15.868 31.4488 16.9752C31.4488 18.082 32.3452 18.9788 33.4519 18.9788H43.4662C44.5725 18.9788 45.4692 18.082 45.4692 16.9752C45.4692 15.868 44.5725 14.9712 43.4662 14.9712H33.4519Z" fill="#212121"/>
<path opacity="0.100006" d="M57.4861 48.786H19.4318C17.7798 48.786 16.4277 47.4332 16.4277 45.78V46.0304C16.4277 47.684 17.7798 49.0364 19.4318 49.0364H57.4861C59.1385 49.0364 60.4907 47.684 60.4907 46.0304V45.78C60.4907 47.4332 59.1385 48.786 57.4861 48.786ZM33.4518 14.9712H43.4661C44.53 14.9712 45.3992 15.8028 45.4616 16.85C45.464 16.8076 45.4692 16.7672 45.4692 16.7248C45.4692 15.6176 44.5728 14.7208 43.4661 14.7208H33.4518C32.3455 14.7208 31.4488 15.6176 31.4488 16.7248C31.4488 16.7672 31.4516 16.8076 31.4568 16.85C31.5191 15.8028 32.3879 14.9712 33.4518 14.9712" fill="#231F20"/>
<path opacity="0.2" d="M16.4277 11.2141H60.4907V10.9637H16.4277V11.2141ZM43.4662 18.9789H33.4519C32.388 18.9789 31.5192 18.1477 31.4564 17.1005C31.4516 17.1433 31.4488 17.1833 31.4488 17.2257C31.4488 18.3329 32.3452 19.2297 33.4519 19.2297H43.4662C44.5729 19.2297 45.4692 18.3329 45.4692 17.2257C45.4692 17.1833 45.4664 17.1433 45.4616 17.1005C45.3989 18.1477 44.5301 18.9789 43.4662 18.9789Z" fill="white"/>
<path opacity="0.0200043" d="M16.4277 29.7496H60.4907V30H16.4277V29.7496Z" fill="#212121"/>
<path opacity="0.05" d="M16.4277 30H60.4907V30.2504H16.4277V30Z" fill="white"/>
<path d="M16.4273 10.964V46.0304C16.4273 47.684 17.7795 49.0364 19.4319 49.0364H57.4858C59.1382 49.0364 60.4903 47.684 60.4903 46.0304V10.964H16.4273ZM31.4488 16.9752C31.4488 15.868 32.3452 14.9712 33.4519 14.9712H43.4662C44.5725 14.9712 45.4692 15.868 45.4692 16.9752C45.4692 18.082 44.5725 18.9788 43.4662 18.9788H33.4519C32.3452 18.9788 31.4488 18.082 31.4488 16.9752Z" fill="url(#paint0_radial_11_3)"/>
</g>
<defs>
<radialGradient id="paint0_radial_11_3" cx="0" cy="0" r="1" gradientUnits="userSpaceOnUse" gradientTransform="translate(16.303 10.7994) scale(56.9802 57.0079)">
<stop stop-color="white" stop-opacity="0.2"/>
<stop offset="1" stop-color="white" stop-opacity="0"/>
</radialGradient>
<clipPath id="clip0_11_3">
<rect width="44.063" height="38.0728" fill="white" transform="translate(16.4277 10.9636)"/>
</clipPath>
</defs>
</svg>
