<svg xmlns="http://www.w3.org/2000/svg" width="213" height="60" fill="none" viewBox="0 0 213 60"><rect width="212" height="59" x=".5" y=".5" fill="#fff" rx="2.5"/><rect width="212" height="59" x=".5" y=".5" stroke="#d9d9d9" rx="2.5"/><path fill="#5f6368" d="M74.626 45.584q-2.59 0-4.346-1.717-1.755-1.716-1.755-4.283T70.28 35.3t4.346-1.716q2.658 0 4.314 1.877l-1.05.994q-1.197-1.46-3.264-1.46-1.919 0-3.239 1.268t-1.32 3.32q0 2.055 1.32 3.321 1.32 1.268 3.24 1.268 2.115 0 3.608-1.669l1.05 1.028a5.7 5.7 0 0 1-2.018 1.5q-1.215.552-2.64.553M82.347 33.84v3.626l-.066 1.09h.066q.328-.56 1.033-.953.705-.394 1.51-.393 1.491 0 2.279.898t.787 2.407v4.812h-1.509v-4.588q0-2.182-1.984-2.182-.936 0-1.526.73a2.6 2.6 0 0 0-.59 1.692v4.348h-1.51V33.84zM91.196 45.327h-1.51v-7.861h1.444v1.283h.066q.23-.64.942-1.058.714-.418 1.387-.418.672 0 1.131.193l-.574 1.38q-.296-.113-.803-.113-.82 0-1.452.634-.63.634-.631 1.66zM97.17 43.458q.777.778 1.844.778 1.066 0 1.846-.778.779-.777.779-2.062 0-1.283-.779-2.061-.78-.778-1.846-.778t-1.845.778-.779 2.061q0 1.285.78 2.062m-1.124-5.053q1.164-1.196 2.968-1.196t2.969 1.195q1.165 1.196 1.165 2.992 0 1.798-1.165 2.992-1.164 1.195-2.969 1.195t-2.968-1.195-1.165-2.992q0-1.796 1.165-2.992M104.694 45.327v-7.861h1.444v1.09h.065q.345-.56 1.058-.953.714-.394 1.419-.394 1.87 0 2.542 1.508.986-1.508 2.805-1.508 1.428 0 2.149.89.721.892.721 2.415v4.813h-1.508v-4.588q0-1.187-.443-1.685-.444-.497-1.345-.497-.886 0-1.468.738a2.65 2.65 0 0 0-.583 1.684v4.348h-1.509v-4.588q0-1.187-.442-1.685-.443-.497-1.345-.497-.886 0-1.468.738a2.64 2.64 0 0 0-.583 1.684v4.348zM124.689 40.45q-.05-.674-.632-1.284t-1.73-.61q-.837 0-1.452.514-.615.513-.845 1.38zm-2.166 5.134q-1.82 0-2.96-1.188-1.14-1.185-1.14-3 0-1.716 1.107-2.951t2.829-1.236q1.789 0 2.862 1.14 1.075 1.139 1.075 3.048l-.016.273h-6.348q.065 1.186.812 1.876.746.69 1.747.69 1.623 0 2.198-1.348l1.345.546q-.394.914-1.296 1.532-.903.618-2.215.618M144.678 33.84l-3.133 11.487h-1.542l-2.526-7.572h-.066l-2.526 7.572h-1.541l-3.265-11.487h1.575l2.477 9.032h.065l2.543-7.492h1.41l2.543 7.492h.065l2.346-9.032zM151.018 40.45q-.05-.674-.631-1.284-.583-.61-1.731-.61a2.2 2.2 0 0 0-1.452.514q-.614.513-.844 1.38zm-2.165 5.134q-1.821 0-2.961-1.188-1.14-1.185-1.139-3 0-1.716 1.107-2.951t2.829-1.236q1.788 0 2.862 1.14t1.075 3.048l-.017.273h-6.347q.065 1.186.812 1.876.745.69 1.746.69 1.625 0 2.198-1.348l1.345.546q-.393.914-1.296 1.532-.901.618-2.214.618M158.179 44.236q1.05 0 1.804-.778.755-.778.755-2.062 0-1.282-.755-2.061-.754-.778-1.804-.778-1.066 0-1.812.77t-.746 2.07.746 2.07q.746.769 1.812.77m.246 1.347q-.918 0-1.648-.384-.73-.386-1.091-.963h-.065v1.091h-1.444V33.84h1.509v3.626l-.065 1.09h.065q.36-.576 1.091-.962.73-.384 1.648-.385 1.559 0 2.69 1.203t1.132 2.984q0 1.78-1.132 2.985-1.131 1.202-2.69 1.202M170.371 45.584q-1.279 0-2.501-.819-1.223-.818-1.599-2.294l1.378-.545q.246.946 1.009 1.596t1.713.65q.984 0 1.682-.505.696-.506.697-1.372 0-.962-.697-1.484-.698-.522-2.207-.97-1.558-.482-2.361-1.244-.804-.761-.804-1.949 0-1.236 1.001-2.15t2.607-.914q1.494 0 2.428.73t1.214 1.596l-1.378.561q-.148-.545-.73-1.01t-1.5-.466q-.87 0-1.485.474-.615.472-.615 1.18 0 .64.566 1.082.565.441 1.665.794.869.272 1.451.53.582.256 1.181.681t.902 1.059q.303.634.304 1.468 0 .834-.353 1.492a2.8 2.8 0 0 1-.935 1.043 4.798 4.798 0 0 1-2.633.786M179.225 45.455q-1.263 0-1.927-.657-.664-.659-.664-1.861v-4.123h-1.411v-1.348h1.411V35.06h1.509v2.406h1.968v1.348h-1.968v4.01q0 1.284 1.082 1.284.41 0 .689-.129l.525 1.268q-.492.208-1.214.208M183.356 43.458q.78.778 1.846.778 1.065 0 1.845-.778.779-.777.779-2.062 0-1.282-.779-2.061-.78-.778-1.845-.778-1.066 0-1.846.778-.779.779-.779 2.061 0 1.284.779 2.062m-1.123-5.053q1.164-1.196 2.969-1.196t2.968 1.195q1.165 1.196 1.165 2.992 0 1.798-1.165 2.992-1.165 1.195-2.968 1.195-1.805 0-2.969-1.195-1.165-1.194-1.165-2.992 0-1.796 1.165-2.992M192.158 45.327h-1.508v-7.86h1.443v1.282h.065q.23-.64.944-1.058.713-.418 1.386-.418t1.132.193l-.575 1.38q-.295-.113-.804-.113-.82 0-1.451.634t-.632 1.66zM201.917 40.45q-.049-.674-.631-1.284t-1.731-.61q-.836 0-1.451.514-.615.513-.845 1.38zm-2.165 5.134q-1.82 0-2.961-1.187-1.139-1.188-1.139-3 0-1.718 1.107-2.952 1.107-1.236 2.829-1.236 1.788 0 2.862 1.14 1.075 1.138 1.075 3.048l-.017.273h-6.347q.065 1.186.812 1.876.745.69 1.746.69 1.625 0 2.198-1.348l1.345.546q-.393.914-1.295 1.532-.903.618-2.215.618M71.07 20.984h2.984l-1.467-3.929h-.05zm-2.545 3.405 3.385-8.708h1.303L76.6 24.39h-1.28l-.864-2.36H70.68l-.877 2.36zM78.771 24.389l-2.482-5.96h1.254l1.805 4.622h.025l1.83-4.621h1.229l-2.507 5.959zM85.213 23.562q.716 0 1.298-.517.582-.516.583-1.223-.489-.388-1.467-.388-.84 0-1.266.352t-.427.827q0 .438.39.693.387.255.89.256m-.188 1.022q-.978 0-1.636-.548-.658-.547-.658-1.447 0-.972.777-1.527.778-.552 1.918-.553 1.016 0 1.668.365v-.17q0-.657-.464-1.052-.465-.396-1.141-.396-.502 0-.909.232a1.2 1.2 0 0 0-.558.632l-1.053-.438q.213-.535.84-.991t1.655-.456q1.178 0 1.956.669.777.669.777 1.885v3.6h-1.103v-.827h-.05q-.69 1.021-2.019 1.022M90.871 24.389h-1.153v-5.96h1.153zm0-7.456a.8.8 0 0 1-.577.232.8.8 0 0 1-.576-.232.75.75 0 0 1-.239-.559q0-.328.239-.56a.8.8 0 0 1 .576-.23.8.8 0 0 1 .577.23q.238.232.238.56t-.238.56M93.528 24.389h-1.153V15.68h1.153zM97.211 23.562q.716 0 1.298-.517.583-.516.583-1.223-.489-.388-1.467-.388-.84 0-1.266.352t-.426.827q0 .438.388.693.389.255.89.256m-.188 1.022q-.978 0-1.636-.548-.658-.547-.658-1.447 0-.972.777-1.527.777-.552 1.918-.553 1.016 0 1.668.365v-.17q0-.657-.464-1.052-.465-.396-1.14-.396-.502 0-.91.232a1.2 1.2 0 0 0-.558.632l-1.053-.438q.213-.535.84-.991t1.655-.456q1.177 0 1.956.669.777.669.777 1.885v3.6h-1.103v-.827h-.05q-.69 1.021-2.019 1.022M104.534 23.562a1.86 1.86 0 0 0 1.379-.59q.577-.59.577-1.563t-.577-1.563a1.86 1.86 0 0 0-1.379-.59q-.815 0-1.385.585-.57.582-.57 1.568t.57 1.569q.57.584 1.385.584m.188 1.022a2.7 2.7 0 0 1-1.259-.292q-.56-.293-.834-.73h-.05v.827h-1.104V15.68h1.154v2.749l-.05.826h.05q.274-.437.834-.73a2.7 2.7 0 0 1 1.259-.291q1.192 0 2.056.912.866.913.865 2.262.001 1.35-.865 2.262-.865.912-2.056.913M109.88 24.389h-1.153V15.68h1.153zM115.66 20.692q-.038-.51-.482-.973-.446-.462-1.323-.463-.64 0-1.11.39t-.645 1.046zm-1.655 3.891q-1.392 0-2.262-.9-.872-.9-.872-2.274 0-1.3.846-2.237t2.163-.937q1.367 0 2.187.864.822.863.821 2.31l-.012.207h-4.851q.05.9.62 1.422.57.524 1.335.523 1.241 0 1.68-1.02l1.028.413q-.3.693-.99 1.161t-1.693.468M122.234 24.389h-1.153v-5.96h1.153zm0-7.456a.8.8 0 0 1-.577.232.8.8 0 0 1-.576-.232.75.75 0 0 1-.239-.559q0-.328.239-.56a.8.8 0 0 1 .576-.23.8.8 0 0 1 .577.23.75.75 0 0 1 .238.56.75.75 0 0 1-.238.56M124.841 18.43v.826h.05q.251-.425.79-.723a2.35 2.35 0 0 1 1.154-.298q1.14 0 1.742.681t.602 1.824v3.649h-1.154V20.91q0-1.655-1.516-1.655-.715 0-1.166.554a1.97 1.97 0 0 0-.452 1.283v3.296h-1.153v-5.96zM136.221 24.486q-.966 0-1.473-.498-.508-.499-.508-1.412v-3.125h-1.078V18.43h1.078v-1.825h1.153v1.825h1.505v1.021h-1.505v3.04q0 .974.828.973.313 0 .526-.097l.401.961q-.376.158-.927.158M139.217 15.681v2.749l-.05.826h.05q.25-.425.79-.723a2.35 2.35 0 0 1 1.153-.298q1.142 0 1.743.681.601.682.601 1.824v3.649h-1.153V20.91q0-1.655-1.517-1.655-.714 0-1.166.554-.45.554-.451 1.283v3.296h-1.153V15.68zM149.297 20.692q-.039-.51-.483-.973-.446-.462-1.323-.463-.639 0-1.11.39-.47.39-.645 1.046zm-1.655 3.891q-1.392 0-2.263-.9t-.871-2.274q0-1.3.845-2.237.847-.937 2.163-.937 1.366 0 2.188.864.82.863.821 2.31l-.012.207h-4.852q.05.9.621 1.422.569.524 1.334.523 1.242 0 1.681-1.02l1.028.413q-.301.693-.991 1.161t-1.692.468"/><g clip-path="url(#a)"><path fill="#eee" d="M16.427 10.964V46.03a3.014 3.014 0 0 0 3.005 3.006h38.054a3.014 3.014 0 0 0 3.004-3.006V10.964zm15.022 6.011c0-1.107.896-2.004 2.003-2.004h10.014a2.003 2.003 0 0 1 0 4.008H33.452a2.003 2.003 0 0 1-2.003-2.004"/><mask id="b" width="39" height="40" x="19" y="26" maskUnits="userSpaceOnUse" style="mask-type:alpha"><path fill="#f1f1f1" d="M19.432 46.03c0-10.513 8.519-19.036 19.027-19.036s19.027 8.523 19.027 19.037-8.518 19.036-19.027 19.036c-10.508 0-19.027-8.522-19.027-19.036"/></mask><g mask="url(#b)"><path fill="#db4437" d="M22.454 26.994v23.362h8.514l7.491-12.98h19.027V26.995zm0 0v23.362h8.514l7.491-12.98h19.027V26.995z"/><path fill="#0f9d58" d="M19.432 65.067h18.11l8.408-8.411v-6.297l-14.982-.003-11.536-19.795zm0 0h18.11l8.408-8.411v-6.297l-14.982-.003-11.536-19.795z"/><path fill="#ffcd40" d="m38.459 37.377 7.49 12.98-8.404 14.71h19.941v-27.69zm0 0 7.49 12.98-8.404 14.71h19.941v-27.69z"/><path fill="#fff" d="M38.459 37.377c4.777 0 8.65 3.874 8.65 8.654s-3.873 8.654-8.65 8.654-8.65-3.875-8.65-8.654c0-4.78 3.873-8.654 8.65-8.654"/><path fill="#4285f4" d="M38.459 39.108c3.822 0 6.92 3.1 6.92 6.923a6.92 6.92 0 0 1-6.92 6.923c-3.822 0-6.92-3.1-6.92-6.923a6.92 6.92 0 0 1 6.92-6.923"/></g><path fill="#212121" fill-rule="evenodd" d="M60.49 10.964H16.429V30H60.49zM33.453 14.97a2.003 2.003 0 1 0 0 4.008h10.014a2.003 2.003 0 0 0 0-4.008z" clip-rule="evenodd" opacity=".05"/><path fill="#231f20" d="M57.486 48.786H19.432a3.014 3.014 0 0 1-3.004-3.006v.25a3.014 3.014 0 0 0 3.004 3.006h38.054a3.014 3.014 0 0 0 3.005-3.006v-.25a3.014 3.014 0 0 1-3.005 3.006M33.452 14.971h10.014a2 2 0 0 1 1.996 1.879q.005-.062.007-.125a2.003 2.003 0 0 0-2.003-2.004H33.452a2.003 2.003 0 0 0-2.003 2.004q0 .062.008.125a2 2 0 0 1 1.995-1.879" opacity=".1"/><path fill="#fff" d="M16.428 11.214H60.49v-.25H16.428zm27.038 7.765H33.452a2 2 0 0 1-1.996-1.878 1 1 0 0 0-.007.125c0 1.107.896 2.004 2.003 2.004h10.014a2.003 2.003 0 0 0 2.003-2.004q0-.063-.007-.125a2 2 0 0 1-1.996 1.878" opacity=".2"/><path fill="#212121" d="M16.428 29.75H60.49V30H16.428z" opacity=".02"/><path fill="#fff" d="M16.428 30H60.49v.25H16.428z" opacity=".05"/><path fill="url(#c)" d="M16.427 10.964V46.03a3.014 3.014 0 0 0 3.005 3.006h38.054a3.014 3.014 0 0 0 3.004-3.006V10.964zm15.022 6.011c0-1.107.896-2.004 2.003-2.004h10.014a2.003 2.003 0 0 1 0 4.008H33.452a2.003 2.003 0 0 1-2.003-2.004"/></g><defs><radialGradient id="c" cx="0" cy="0" r="1" gradientTransform="matrix(56.9802 0 0 57.0079 16.303 10.8)" gradientUnits="userSpaceOnUse"><stop stop-color="#fff" stop-opacity=".2"/><stop offset="1" stop-color="#fff" stop-opacity="0"/></radialGradient><clipPath id="a"><path fill="#fff" d="M16.428 10.964H60.49v38.073H16.428z"/></clipPath></defs></svg>