<svg xmlns="http://www.w3.org/2000/svg" width="225" height="60" fill="none" viewBox="0 0 225 60"><rect width="224" height="59" x=".5" y=".5" fill="#fff" rx="3.5"/><rect width="224" height="59" x=".5" y=".5" stroke="#d2d2d2" rx="3.5"/><path fill="#5f6368" d="M74.121 48h-2.765V37.125q0-1.335.163-3.27h-.046q-.258 1.102-.457 1.583L66 48h-1.922l-5.027-12.469q-.211-.55-.446-1.675h-.046q.093 1.007.093 3.292V48h-2.578V31.195H60l4.418 11.192q.504 1.29.656 1.922h.059q.433-1.325.703-1.97l4.5-11.144h3.785zM78.856 33.48q-.668 0-1.148-.433a1.44 1.44 0 0 1-.47-1.102q0-.668.47-1.113.48-.445 1.148-.445.691 0 1.172.445.48.445.48 1.113 0 .633-.48 1.09-.48.446-1.172.446M80.204 48h-2.72V36h2.72zM91.876 47.45q-1.442.831-3.41.831-2.672 0-4.313-1.664-1.64-1.675-1.64-4.336 0-2.964 1.757-4.758 1.77-1.804 4.723-1.804 1.641 0 2.895.574v2.531q-1.254-.937-2.672-.937-1.723 0-2.824 1.172-1.102 1.16-1.102 3.047 0 1.863 1.031 2.94 1.043 1.08 2.79 1.079 1.464 0 2.765-1.043zM101.064 38.59q-.492-.387-1.418-.387-1.207 0-2.016 1.09t-.808 2.965V48h-2.719V36h2.719v2.473h.047q.397-1.266 1.218-1.97.832-.714 1.852-.714.738 0 1.125.223zM107.615 48.281q-2.777 0-4.441-1.675-1.653-1.689-1.653-4.465 0-3.024 1.723-4.723 1.734-1.7 4.664-1.7 2.812 0 4.383 1.653 1.57 1.653 1.57 4.582 0 2.872-1.699 4.606-1.688 1.722-4.547 1.722m.129-10.394q-1.593 0-2.519 1.113-.926 1.114-.926 3.07 0 1.887.937 2.977.938 1.078 2.508 1.078 1.606 0 2.461-1.066.867-1.066.867-3.036 0-1.98-.867-3.058-.855-1.078-2.461-1.078M115.409 47.625v-2.52q1.523 1.16 3.363 1.16 2.461 0 2.461-1.453 0-.41-.211-.69a2 2 0 0 0-.574-.517 4.3 4.3 0 0 0-.844-.398q-.48-.176-1.078-.398a12 12 0 0 1-1.336-.621 4.3 4.3 0 0 1-.985-.739 2.9 2.9 0 0 1-.585-.949 3.5 3.5 0 0 1-.2-1.23q0-.868.41-1.524a3.5 3.5 0 0 1 1.102-1.113 5.1 5.1 0 0 1 1.57-.68 7 7 0 0 1 1.817-.234q1.663 0 2.976.504v2.379q-1.265-.868-2.906-.868a3.9 3.9 0 0 0-.937.106 2.4 2.4 0 0 0-.704.293 1.4 1.4 0 0 0-.457.457 1.05 1.05 0 0 0-.164.574q0 .387.164.656.165.27.481.48.328.2.773.376.458.164 1.043.363.774.316 1.383.645a4.5 4.5 0 0 1 1.055.75q.434.41.668.96.234.54.234 1.29 0 .913-.422 1.593a3.5 3.5 0 0 1-1.125 1.125 5.2 5.2 0 0 1-1.629.657 8.2 8.2 0 0 1-1.933.222q-1.969 0-3.41-.656M131.358 48.281q-2.777 0-4.441-1.675-1.653-1.689-1.652-4.465 0-3.024 1.722-4.723 1.734-1.7 4.664-1.7 2.813 0 4.383 1.653t1.57 4.582q0 2.872-1.699 4.606-1.687 1.722-4.547 1.722m.129-10.394q-1.593 0-2.519 1.113-.927 1.114-.926 3.07 0 1.887.937 2.977.937 1.078 2.508 1.078 1.606 0 2.461-1.066.867-1.066.867-3.036 0-1.98-.867-3.058-.855-1.078-2.461-1.078M146.288 32.45a2.47 2.47 0 0 0-1.253-.317q-1.981 0-1.981 2.238V36h2.789v2.133h-2.777V48h-2.719v-9.867h-2.051V36h2.051v-1.945q0-1.899 1.242-2.989 1.242-1.101 3.106-1.101 1.008 0 1.593.223zM154.07 47.871q-.796.398-2.098.398-3.492 0-3.492-3.351v-6.785h-2.004V36h2.004v-2.777l2.719-.774V36h2.871v2.133h-2.871v6q0 1.066.387 1.523t1.289.457q.691 0 1.195-.398zM171.802 48h-9.434V31.195h9.059v2.367h-6.27v4.758h5.777v2.356h-5.777v4.968h6.645zM184.915 48h-2.718v-2.04h-.047q-1.313 2.321-4.043 2.321-2.215 0-3.551-1.605-1.324-1.617-1.324-4.395 0-2.976 1.465-4.77 1.476-1.792 3.925-1.792 2.426 0 3.528 1.945h.047v-7.43h2.718zm-2.683-5.484v-1.57q0-1.278-.832-2.169-.833-.89-2.121-.89-1.524 0-2.403 1.136-.867 1.137-.867 3.153 0 1.827.832 2.894.844 1.055 2.262 1.055 1.394 0 2.262-1.02.867-1.03.867-2.59M198.908 47.04q0 6.608-6.645 6.608-2.343 0-4.089-.785V50.38q1.968 1.125 3.738 1.125 4.277 0 4.277-4.207v-1.313h-.047q-1.348 2.298-4.054 2.297-2.192 0-3.539-1.593-1.336-1.605-1.336-4.301 0-3.059 1.441-4.864t3.961-1.804q2.38 0 3.527 1.945h.047V36h2.719zm-2.695-4.536v-1.559q0-1.265-.844-2.156-.832-.903-2.086-.902-1.547 0-2.426 1.148-.867 1.136-.867 3.188 0 1.77.832 2.836.844 1.054 2.227 1.054 1.406 0 2.285-1.008.879-1.02.879-2.601M212.127 42.738h-8.18q.048 1.664 1.02 2.567.984.902 2.695.902 1.922 0 3.528-1.148v2.191q-1.64 1.032-4.336 1.031-2.65 0-4.16-1.629-1.5-1.64-1.5-4.605 0-2.8 1.652-4.559 1.663-1.77 4.125-1.77t3.809 1.583 1.347 4.394zm-2.625-1.922q-.012-1.464-.691-2.273-.68-.82-1.875-.82-1.172 0-1.992.855-.809.855-.997 2.238zM63.492 23.282q-1.64.894-3.655.894-2.329 0-3.772-1.45t-1.442-3.838q0-2.44 1.574-4 1.582-1.567 4.014-1.567 1.75 0 2.944.513v1.794q-1.208-.805-2.878-.805-1.677 0-2.754 1.106-1.07 1.106-1.07 2.864 0 1.808.923 2.849.923 1.032 2.505 1.032 1.084 0 1.875-.417v-2.498h-2.212v-1.465h3.948zM71.765 20.711h-5.112q.03 1.041.637 1.604.615.564 1.685.564 1.2 0 2.204-.717v1.37q-1.025.644-2.71.644-1.655 0-2.6-1.018-.937-1.026-.937-2.879 0-1.75 1.032-2.849 1.04-1.106 2.578-1.106 1.54 0 2.38.989.843.99.843 2.747zm-1.64-1.2q-.008-.916-.433-1.422-.424-.512-1.172-.512a1.66 1.66 0 0 0-1.245.534q-.505.535-.622 1.4zM77.189 23.92q-.499.248-1.311.248-2.183 0-2.183-2.094v-4.241h-1.252V16.5h1.252v-1.736l1.7-.483V16.5h1.794v1.333h-1.795v3.75q0 .666.242.952t.806.286q.432 0 .747-.25zM83.341 14.925q-.417 0-.717-.27a.9.9 0 0 1-.293-.69.92.92 0 0 1 .293-.695q.3-.278.717-.278.433 0 .733.278.3.279.3.696 0 .395-.3.681-.3.278-.733.278M84.184 24h-1.7v-7.5h1.7zM90.215 23.92q-.498.248-1.31.248-2.184 0-2.183-2.094v-4.241h-1.253V16.5h1.253v-1.736l1.699-.483V16.5h1.794v1.333h-1.794v3.75q0 .666.242.952.241.285.805.286.432 0 .747-.25zM99.752 14.28a1.54 1.54 0 0 0-.784-.197q-1.238 0-1.238 1.399V16.5h1.743v1.333h-1.735V24h-1.7v-6.167h-1.281V16.5h1.281v-1.216q0-1.185.777-1.868.776-.688 1.94-.688.63 0 .997.14zM104.883 18.119q-.309-.242-.887-.242-.755 0-1.259.681-.506.681-.506 1.853V24h-1.699v-7.5h1.699v1.545h.029q.249-.79.762-1.23a1.74 1.74 0 0 1 1.157-.447q.462 0 .704.14zM109.127 24.176q-1.735 0-2.776-1.048-1.032-1.054-1.033-2.79 0-1.89 1.077-2.952 1.084-1.062 2.915-1.062 1.758 0 2.739 1.033.982 1.032.982 2.864 0 1.794-1.062 2.878-1.055 1.077-2.842 1.077m.081-6.497q-.996 0-1.575.696t-.579 1.919q0 1.179.586 1.86.586.675 1.568.674 1.003 0 1.538-.666.542-.667.542-1.897 0-1.239-.542-1.912-.535-.675-1.538-.674M125.83 24h-1.699v-4.087q0-1.179-.337-1.707-.33-.527-1.121-.527-.666 0-1.135.667-.462.666-.461 1.596V24h-1.707v-4.226q0-2.095-1.479-2.095-.689 0-1.136.63-.44.63-.439 1.633V24h-1.699v-7.5h1.699v1.186h.029q.813-1.362 2.366-1.362.776 0 1.355.432.587.425.798 1.121.836-1.553 2.49-1.553 2.476 0 2.476 3.054z"/><g clip-path="url(#a)"><path fill="url(#b)" d="M44.498 38.79q-.724.375-1.49.66a14.3 14.3 0 0 1-5.049.9c-6.651 0-12.445-4.57-12.445-10.448a4.43 4.43 0 0 1 2.306-3.84c-6.018.254-7.565 6.525-7.565 10.196 0 10.406 9.576 11.447 11.644 11.447 1.11 0 2.784-.324 3.796-.647l.183-.056a18.04 18.04 0 0 0 9.366-7.425.563.563 0 0 0-.746-.788"/><path fill="url(#c)" d="M44.498 38.79q-.724.375-1.49.66a14.3 14.3 0 0 1-5.049.9c-6.651 0-12.445-4.57-12.445-10.448a4.43 4.43 0 0 1 2.306-3.84c-6.018.254-7.565 6.525-7.565 10.196 0 10.406 9.576 11.447 11.644 11.447 1.11 0 2.784-.324 3.796-.647l.183-.056a18.04 18.04 0 0 0 9.366-7.425.563.563 0 0 0-.746-.788" opacity=".35"/><path fill="url(#d)" d="M26.864 45.933a11.1 11.1 0 0 1-3.192-2.995 11.348 11.348 0 0 1 4.148-16.876c.45-.21 1.196-.576 2.194-.562a4.56 4.56 0 0 1 3.614 1.828c.566.761.876 1.682.886 2.63 0-.028 3.445-11.194-11.25-11.194-6.173 0-11.25 5.85-11.25 10.997a18.3 18.3 0 0 0 1.702 7.875 18 18 0 0 0 21.993 9.422 10.62 10.62 0 0 1-8.83-1.125z"/><path fill="url(#e)" d="M26.864 45.933a11.1 11.1 0 0 1-3.192-2.995 11.348 11.348 0 0 1 4.148-16.876c.45-.21 1.196-.576 2.194-.562a4.56 4.56 0 0 1 3.614 1.828c.566.761.876 1.682.886 2.63 0-.028 3.445-11.194-11.25-11.194-6.173 0-11.25 5.85-11.25 10.997a18.3 18.3 0 0 0 1.702 7.875 18 18 0 0 0 21.993 9.422 10.62 10.62 0 0 1-8.83-1.125z" opacity=".41"/><path fill="url(#f)" d="M33.431 32.925c-.126.14-.478.352-.478.788 0 .365.24.73.675 1.026 2.011 1.406 5.822 1.21 5.836 1.21 1.5-.002 2.97-.405 4.261-1.168A8.63 8.63 0 0 0 48 27.342c.042-3.15-1.125-5.245-1.59-6.173C43.417 15.347 36.99 12 30 12a18 18 0 0 0-18 17.747c.07-5.133 5.175-9.281 11.25-9.281.492 0 3.305.042 5.906 1.406a10.2 10.2 0 0 1 4.346 4.12c.857 1.49 1.012 3.39 1.012 4.149s-.38 1.87-1.097 2.798z"/><path fill="url(#g)" d="M33.431 32.925c-.126.14-.478.352-.478.788 0 .365.24.73.675 1.026 2.011 1.406 5.822 1.21 5.836 1.21 1.5-.002 2.97-.405 4.261-1.168A8.63 8.63 0 0 0 48 27.342c.042-3.15-1.125-5.245-1.59-6.173C43.417 15.347 36.99 12 30 12a18 18 0 0 0-18 17.747c.07-5.133 5.175-9.281 11.25-9.281.492 0 3.305.042 5.906 1.406a10.2 10.2 0 0 1 4.346 4.12c.857 1.49 1.012 3.39 1.012 4.149s-.38 1.87-1.097 2.798z"/></g><defs><radialGradient id="c" cx="0" cy="0" r="1" gradientTransform="matrix(13.4156 0 0 12.7448 34.106 37.08)" gradientUnits="userSpaceOnUse"><stop offset=".7" stop-opacity="0"/><stop offset=".9" stop-opacity=".5"/><stop offset="1"/></radialGradient><radialGradient id="e" cx="0" cy="0" r="1" gradientTransform="matrix(3.02062 -19.9361 -16.11 -2.4165 21.922 39.975)" gradientUnits="userSpaceOnUse"><stop offset=".8" stop-opacity="0"/><stop offset=".9" stop-opacity=".5"/><stop offset="1"/></radialGradient><radialGradient id="f" cx="0" cy="0" r="1" gradientTransform="matrix(-1.1385 28.4625 60.6251 2.277 15.64 18.654)" gradientUnits="userSpaceOnUse"><stop stop-color="#35c1f1"/><stop offset=".1" stop-color="#34c1ed"/><stop offset=".2" stop-color="#2fc2df"/><stop offset=".3" stop-color="#2bc3d2"/><stop offset=".7" stop-color="#36c752"/></radialGradient><radialGradient id="g" cx="0" cy="0" r="1" gradientTransform="matrix(3.83119 13.1355 10.6726 -3.14705 45.758 22.87)" gradientUnits="userSpaceOnUse"><stop stop-color="#66eb6e"/><stop offset="1" stop-color="#66eb6e" stop-opacity="0"/></radialGradient><linearGradient id="b" x1="20.255" x2="45.342" y1="36.891" y2="36.891" gradientUnits="userSpaceOnUse"><stop stop-color="#0c59a4"/><stop offset="1" stop-color="#114a8b"/></linearGradient><linearGradient id="d" x1="33.473" x2="17.822" y1="26.006" y2="43.064" gradientUnits="userSpaceOnUse"><stop stop-color="#1b9de2"/><stop offset=".2" stop-color="#1595df"/><stop offset=".7" stop-color="#0680d7"/><stop offset="1" stop-color="#0078d4"/></linearGradient><clipPath id="a"><path fill="#fff" d="M12 12h36v36H12z"/></clipPath></defs></svg>