<svg width="172" height="60" viewBox="0 0 172 60" fill="none" xmlns="http://www.w3.org/2000/svg">
<rect width="172" height="60" rx="3" fill="#109AD6"/>
<path fill-rule="evenodd" clip-rule="evenodd" d="M134.556 44.7428C133.142 44.7428 131.836 44.3868 130.618 43.6526C129.399 42.9407 128.42 41.984 127.702 40.7604C126.984 39.5367 126.614 38.2241 126.614 36.8224C126.614 35.4208 126.984 34.1082 127.702 32.8845C128.42 31.6831 129.399 30.7264 130.618 29.9923C131.836 29.2803 133.142 28.9243 134.556 28.9243C135.971 28.9243 137.276 29.2803 138.495 29.9923C139.713 30.7264 140.693 31.6831 141.411 32.8845C142.129 34.1082 142.499 35.4208 142.499 36.8224C142.499 38.2241 142.129 39.5367 141.411 40.7604C140.693 41.984 139.713 42.9407 138.495 43.6526C137.276 44.3868 135.971 44.7428 134.556 44.7428ZM134.556 41.7615C135.383 41.7615 136.145 41.539 136.863 41.0718C137.581 40.6269 138.147 40.0262 138.56 39.2697C138.974 38.5133 139.191 37.6901 139.191 36.8224C139.191 35.9548 138.974 35.1316 138.56 34.3751C138.147 33.641 137.581 33.0403 136.863 32.573C136.145 32.1281 135.383 31.9056 134.556 31.9056C133.751 31.9056 132.99 32.1281 132.272 32.573C131.554 33.0403 130.966 33.641 130.553 34.3974C130.139 35.1538 129.922 35.9548 129.922 36.8224C129.922 37.6901 130.139 38.5133 130.553 39.2697C130.966 40.0262 131.554 40.6269 132.272 41.0718C132.99 41.539 133.751 41.7615 134.556 41.7615Z" fill="white"/>
<path fill-rule="evenodd" clip-rule="evenodd" d="M81.9579 41.8512L83.0024 44.4765H86.5927L80.5218 29.192H76.9097L70.8387 44.4765H74.4291L75.4735 41.8512H81.9579ZM78.7157 33.7307L80.9352 39.2927H76.4962L78.7157 33.7307Z" fill="white"/>
<path fill-rule="evenodd" clip-rule="evenodd" d="M98.0361 30.171C96.7305 29.5258 95.2509 29.192 93.5971 29.192H88.2443V44.4765H93.5971C95.2509 44.4765 96.7305 44.1428 98.0361 43.4976C99.3417 42.8524 100.364 41.9402 101.104 40.7611C101.822 39.6042 102.192 38.2915 102.192 36.8232C102.192 35.3548 101.822 34.0421 101.104 32.8852C100.364 31.7283 99.3417 30.8162 98.0361 30.171ZM96.5347 40.8946C95.7949 41.295 94.9462 41.4953 94.0106 41.4953H91.4429V32.1733H94.0106C94.9462 32.1733 95.7949 32.3735 96.5347 32.7517C97.2745 33.1522 97.862 33.7084 98.2755 34.4204C98.6889 35.1323 98.8847 35.9332 98.8847 36.8232C98.8847 37.7353 98.6889 38.5363 98.2755 39.226C97.862 39.9379 97.2745 40.4941 96.5347 40.8946Z" fill="white"/>
<path fill-rule="evenodd" clip-rule="evenodd" d="M109.438 29.192C111.092 29.192 112.572 29.5258 113.877 30.171C115.183 30.8162 116.206 31.7283 116.946 32.8852C117.664 34.0421 118.034 35.3548 118.034 36.8232C118.034 38.2915 117.664 39.6042 116.946 40.7611C116.206 41.9402 115.183 42.8524 113.877 43.4976C112.572 44.1428 111.092 44.4765 109.438 44.4765H104.086V29.192H109.438ZM109.852 41.4953C110.788 41.4953 111.636 41.295 112.376 40.8946C113.116 40.4941 113.703 39.9379 114.117 39.226C114.53 38.5363 114.726 37.7353 114.726 36.8232C114.726 35.9332 114.53 35.1323 114.117 34.4204C113.703 33.7084 113.116 33.1522 112.376 32.7517C111.636 32.3735 110.788 32.1733 109.852 32.1733H107.284V41.4953H109.852Z" fill="white"/>
<path d="M119.339 36.9789H125.301V39.7376H119.339V36.9789Z" fill="white"/>
<path d="M147.586 29.192H144.387V44.4765H147.586V34.5983L154.81 44.4765H158.009V29.192H154.81V39.0702L147.586 29.192Z" fill="white"/>
<path d="M80.4724 20.0318H76.1569V21.5626H78.6816V23.4236C78.3734 23.6638 78.0064 23.8439 77.6247 23.9789C77.2284 24.114 76.8321 24.174 76.4505 24.174C75.8339 24.174 75.2615 24.0089 74.7331 23.6788C74.1899 23.3486 73.7643 22.8983 73.456 22.343C73.1478 21.7877 72.9863 21.1874 72.9863 20.542C72.9863 19.8967 73.1478 19.2964 73.456 18.741C73.7643 18.1857 74.1899 17.7505 74.7331 17.4203C75.2615 17.0901 75.8339 16.9251 76.4505 16.9251C76.9495 16.9251 77.4486 17.0301 77.9477 17.2402C78.4468 17.4653 78.8578 17.7505 79.166 18.1257L80.4724 16.88C79.988 16.3697 79.3715 15.9645 78.6523 15.6644C77.933 15.3642 77.1991 15.2141 76.4505 15.2141C75.4963 15.2141 74.6156 15.4542 73.8083 15.9345C72.9863 16.4148 72.3404 17.0601 71.856 17.8856C71.357 18.711 71.1221 19.5965 71.1221 20.542C71.1221 21.4876 71.357 22.373 71.856 23.1985C72.3404 24.0239 72.9863 24.6693 73.8083 25.1496C74.6156 25.6448 75.4963 25.885 76.4505 25.885C77.1844 25.885 77.9183 25.7349 78.6523 25.4347C79.3715 25.1346 79.988 24.7293 80.4724 24.204V20.0318Z" fill="white"/>
<path d="M83.8328 17.1061H89.5868V15.3952H81.9979V25.7059H89.5868V23.9949H83.8328V21.3084H89.0437V19.5975H83.8328V17.1061Z" fill="white"/>
<path d="M93.8565 17.1061H90.6272V15.3952H98.906V17.1061H95.6914V25.7059H93.8565V17.1061Z" fill="white"/>
<path d="M103.435 17.1061H106.664V25.7059H108.499V17.1061H111.713V15.3952H103.435V17.1061Z" fill="white"/>
<path d="M119.91 15.3952H121.73V25.7059H119.91V21.3084H114.875V25.7059H113.04V15.3952H114.875V19.5975H119.91V15.3952Z" fill="white"/>
<path d="M125.436 17.1061H131.19V15.3952H123.601V25.7059H131.19V23.9949H125.436V21.3084H130.647V19.5975H125.436V17.1061Z" fill="white"/>
<path d="M56.4721 22.552C55.4824 20.1714 53.4779 17.6013 51.9038 16.789C53.1849 19.3004 53.9263 21.8198 54.2097 23.7C54.2097 23.7037 54.2111 23.7129 54.2141 23.7379C51.6392 17.3199 47.273 14.7319 43.7076 9.09709C43.5276 8.81217 43.3471 8.52648 43.1712 8.22535C43.0817 8.07156 42.998 7.91437 42.9205 7.75423C42.7724 7.46826 42.6581 7.166 42.5801 6.8535C42.5812 6.82299 42.5586 6.79636 42.5283 6.79247C42.5144 6.78849 42.4995 6.78849 42.4856 6.79247C42.4824 6.79361 42.4776 6.79731 42.4742 6.79863C42.4692 6.80062 42.4629 6.80517 42.4576 6.80811C42.4601 6.8047 42.4654 6.79702 42.467 6.79522C36.7467 10.1454 34.8061 16.3428 34.6278 19.4434C32.3438 19.6004 30.1593 20.4422 28.3606 21.8585C28.1722 21.6994 27.9753 21.5508 27.7707 21.4132C27.2517 19.5974 27.2297 17.6752 27.7068 15.8481C25.3675 16.9132 23.5481 18.5969 22.2253 20.0836H22.2148C21.3121 18.9402 21.3757 15.1684 21.4272 14.3809C21.4164 14.3321 20.7538 14.7248 20.667 14.7841C19.8704 15.3527 19.1257 15.9907 18.4416 16.6905C17.6631 17.48 16.9518 18.333 16.3151 19.2407C16.3151 19.2418 16.3144 19.2431 16.314 19.2443C16.314 19.243 16.3147 19.2418 16.3151 19.2407C14.8508 21.3157 13.8122 23.6605 13.2595 26.1392C13.2486 26.1886 13.2394 26.2398 13.2288 26.2895C13.186 26.49 13.0317 27.4929 13.0047 27.7108C13.0027 27.7276 13.0017 27.7437 12.9997 27.7605C12.8003 28.7974 12.6768 29.8475 12.6302 30.9023C12.6302 30.9411 12.6278 30.9796 12.6278 31.0185C12.6282 43.5937 22.8238 53.7876 35.4 53.7876C46.6629 53.7876 56.0147 45.6114 57.8456 34.8717C57.8841 34.5803 57.915 34.2873 57.9491 33.9933C58.4017 30.0884 57.8988 25.9841 56.4721 22.552ZM30.2256 40.3748C30.3321 40.4257 30.4322 40.4813 30.5415 40.5301C30.5461 40.5332 30.5523 40.5367 30.557 40.5396C30.4456 40.4863 30.3352 40.4314 30.2256 40.3748ZM54.2159 23.7435L54.2129 23.7214C54.214 23.7295 54.2154 23.7379 54.2167 23.7459L54.2159 23.7435Z" fill="url(#paint0_linear_11_5)"/>
<path d="M56.4719 22.5518C55.4822 20.1712 53.4777 17.6011 51.9036 16.7888C53.1847 19.3002 53.9262 21.8196 54.2095 23.6998C54.2095 23.6943 54.2105 23.7043 54.2129 23.7212C54.214 23.7292 54.2154 23.7377 54.2167 23.7457C56.3652 29.5703 55.1947 35.4932 53.508 39.1125C50.8986 44.7125 44.5807 50.4518 34.692 50.1719C24.008 49.8693 14.5957 41.9419 12.8386 31.5589C12.5185 29.9215 12.8386 29.0902 12.9997 27.7608C12.8035 28.7856 12.7287 29.0816 12.6302 30.9025C12.6302 30.9414 12.6278 30.9798 12.6278 31.0188C12.628 43.5935 22.8236 53.7873 35.3998 53.7873C46.6628 53.7873 56.0145 45.6112 57.8454 34.8715C57.884 34.58 57.9148 34.2871 57.9489 33.993C58.4015 30.0882 57.8986 25.9839 56.4719 22.5518Z" fill="url(#paint1_radial_11_5)"/>
<path d="M56.4719 22.5518C55.4822 20.1712 53.4777 17.6011 51.9036 16.7888C53.1847 19.3002 53.9262 21.8196 54.2095 23.6998C54.2095 23.6943 54.2105 23.7043 54.2129 23.7212C54.214 23.7292 54.2154 23.7377 54.2167 23.7457C56.3652 29.5703 55.1947 35.4932 53.508 39.1125C50.8986 44.7125 44.5807 50.4518 34.692 50.1719C24.008 49.8693 14.5957 41.9419 12.8386 31.5589C12.5185 29.9215 12.8386 29.0902 12.9997 27.7608C12.8035 28.7856 12.7287 29.0816 12.6302 30.9025C12.6302 30.9414 12.6278 30.9798 12.6278 31.0188C12.628 43.5935 22.8236 53.7873 35.3998 53.7873C46.6628 53.7873 56.0145 45.6112 57.8454 34.8715C57.884 34.58 57.9148 34.2871 57.9489 33.993C58.4015 30.0882 57.8986 25.9839 56.4719 22.5518Z" fill="url(#paint2_radial_11_5)"/>
<path d="M45.4091 25.2285C45.4587 25.2633 45.5038 25.298 45.5505 25.3327C44.9791 24.3184 44.2674 23.3898 43.4366 22.5742C36.3579 15.4964 41.5804 7.22758 42.4612 6.80763C42.4637 6.80421 42.469 6.79654 42.4706 6.79474C36.7503 10.1449 34.8097 16.3423 34.6314 19.4429C34.8967 19.4246 35.1613 19.4023 35.4313 19.4023C39.7001 19.4023 43.4181 21.7494 45.4091 25.2285Z" fill="url(#paint3_radial_11_5)"/>
<path d="M35.4378 26.6421C35.4006 27.2086 33.3992 29.1619 32.6994 29.1619C26.224 29.1619 25.1729 33.0786 25.1729 33.0786C25.4597 36.377 27.756 39.0932 30.537 40.5304C30.6639 40.596 30.7923 40.6552 30.9208 40.7137C31.1411 40.8112 31.3641 40.9025 31.5896 40.9872C32.5431 41.3248 33.5419 41.5175 34.5527 41.5587C45.9024 42.091 48.1013 27.9904 39.9106 23.8957C42.0082 23.5309 44.1854 24.3745 45.4013 25.2286C43.4103 21.7498 39.6924 19.4027 35.4237 19.4027C35.1536 19.4027 34.8892 19.425 34.6238 19.4434C32.3398 19.6004 30.1552 20.4422 28.3565 21.8585C28.7037 22.1522 29.0956 22.5449 29.9213 23.3582C31.466 24.8807 35.4294 26.4572 35.4378 26.6421Z" fill="url(#paint4_radial_11_5)"/>
<path d="M35.4378 26.6421C35.4006 27.2086 33.3992 29.1619 32.6994 29.1619C26.224 29.1619 25.1729 33.0786 25.1729 33.0786C25.4597 36.377 27.756 39.0932 30.537 40.5304C30.6639 40.596 30.7923 40.6552 30.9208 40.7137C31.1411 40.8112 31.3641 40.9025 31.5896 40.9872C32.5431 41.3248 33.5419 41.5175 34.5527 41.5587C45.9024 42.091 48.1013 27.9904 39.9106 23.8957C42.0082 23.5309 44.1854 24.3745 45.4013 25.2286C43.4103 21.7498 39.6924 19.4027 35.4237 19.4027C35.1536 19.4027 34.8892 19.425 34.6238 19.4434C32.3398 19.6004 30.1552 20.4422 28.3565 21.8585C28.7037 22.1522 29.0956 22.5449 29.9213 23.3582C31.466 24.8807 35.4294 26.4572 35.4378 26.6421Z" fill="url(#paint5_radial_11_5)"/>
<path d="M27.2964 21.1016C27.455 21.2039 27.6123 21.3082 27.7683 21.4143C27.2494 19.5985 27.2273 17.6763 27.7045 15.8492C25.3652 16.9143 23.5457 18.598 22.2229 20.0847C22.3324 20.0816 25.6354 20.0222 27.2964 21.1016Z" fill="url(#paint6_radial_11_5)"/>
<path d="M12.8432 31.5598C14.6003 41.9428 24.0126 49.8703 34.6967 50.1728C44.5853 50.4527 50.9032 44.7131 53.5126 39.1134C55.1992 35.4938 56.3698 29.5717 54.2213 23.7466L54.2205 23.7442L54.2175 23.7221C54.2151 23.7052 54.2137 23.6952 54.2141 23.7007C54.2141 23.7044 54.2155 23.7136 54.2185 23.7386C55.0262 29.0127 52.3433 34.1222 48.1494 37.5769L48.1368 37.6066C39.9647 44.2605 32.1447 41.6211 30.5614 40.5407C30.4501 40.4872 30.3396 40.4321 30.2297 40.3756C25.4653 38.0987 23.4971 33.7581 23.9191 30.0356C19.8961 30.0356 18.5243 26.6425 18.5243 26.6425C18.5243 26.6425 22.1363 24.0672 26.8967 26.307C31.3056 28.3815 35.4462 26.6427 35.4466 26.6425C35.4382 26.4576 31.4748 24.881 29.9298 23.3587C29.1042 22.5453 28.7122 22.1532 28.365 21.8589C28.1766 21.6999 27.9797 21.5512 27.7751 21.4136C27.6189 21.3077 27.4616 21.2034 27.3032 21.1009C25.6423 20.0215 22.3392 20.0809 22.2297 20.0837H22.2192C21.3165 18.9403 21.3802 15.1685 21.4316 14.381C21.4208 14.3322 20.7582 14.725 20.6714 14.7842C19.8748 15.3528 19.1301 15.9908 18.446 16.6907C17.6675 17.4803 16.9562 18.3335 16.3195 19.2414C16.3195 19.2425 16.3188 19.2438 16.3185 19.245C16.3185 19.2437 16.3191 19.2425 16.3195 19.2414C14.8553 21.3164 13.8167 23.6612 13.264 26.1399C13.2531 26.1893 12.4443 29.7256 12.8432 31.5598Z" fill="url(#paint7_radial_11_5)"/>
<path d="M43.4317 22.5742C44.2625 23.3898 44.9742 24.3184 45.5457 25.3327C45.671 25.4269 45.7882 25.5208 45.8876 25.6124C51.05 30.3691 48.3451 37.0966 48.1434 37.5761C52.3373 34.1214 55.0202 29.0119 54.2125 23.7378C51.6375 17.3199 47.2714 14.7319 43.706 9.09709C43.526 8.81217 43.3455 8.52648 43.1696 8.22535C43.0801 8.07156 42.9964 7.91437 42.9189 7.75423C42.7708 7.46826 42.6565 7.166 42.5784 6.8535C42.5796 6.82299 42.5569 6.79636 42.5267 6.79247C42.5128 6.78849 42.4979 6.78849 42.484 6.79247C42.4808 6.79361 42.476 6.79731 42.4726 6.79863C42.4676 6.80062 42.4612 6.80517 42.4559 6.80811C41.5756 7.22768 36.3531 15.4965 43.4317 22.5742Z" fill="url(#paint8_radial_11_5)"/>
<path d="M45.8849 25.6133C45.7855 25.5217 45.6684 25.4278 45.5431 25.3336C45.4967 25.2987 45.4512 25.2641 45.4016 25.2294C44.1857 24.3753 42.0084 23.5317 39.9108 23.8965C48.1015 27.9912 45.9026 42.0918 34.553 41.5595C33.5422 41.5182 32.5434 41.3256 31.5899 40.988C31.3644 40.9032 31.1413 40.812 30.921 40.7145C30.7925 40.656 30.6641 40.5967 30.5373 40.5312C30.5418 40.5343 30.5481 40.5378 30.5527 40.5407C32.1361 41.6209 39.956 44.2604 48.1281 37.6065L48.1407 37.5768C48.3425 37.0979 51.0473 30.3701 45.8849 25.6133Z" fill="url(#paint9_radial_11_5)"/>
<path d="M25.1745 33.0791C25.1745 33.0791 26.2256 29.1625 32.7011 29.1625C33.4011 29.1625 35.4024 27.2091 35.4395 26.6427C35.4765 26.0762 31.2987 28.3816 26.8895 26.3071C22.1291 24.0673 18.5172 26.6427 18.5172 26.6427C18.5172 26.6427 19.8889 30.0357 23.9119 30.0357C23.49 33.7583 25.4582 38.0993 30.2226 40.3757C30.3291 40.4266 30.4291 40.4822 30.5385 40.531C27.7576 39.0937 25.4613 36.3776 25.1745 33.0791Z" fill="url(#paint10_radial_11_5)"/>
<path d="M56.4717 22.552C55.482 20.1714 53.4775 17.6013 51.9034 16.789C53.1845 19.3004 53.926 21.8198 54.2093 23.7C54.2093 23.7037 54.2107 23.7129 54.2137 23.7379C51.6388 17.3199 47.2726 14.7319 43.7073 9.09709C43.5272 8.81217 43.3467 8.52648 43.1709 8.22535C43.0813 8.07156 42.9977 7.91437 42.9201 7.75423C42.772 7.46826 42.6578 7.166 42.5797 6.8535C42.5808 6.82299 42.5582 6.79636 42.528 6.79247C42.514 6.78849 42.4992 6.78849 42.4852 6.79247C42.482 6.79361 42.4773 6.79731 42.4739 6.79863C42.4688 6.80062 42.4625 6.80517 42.4572 6.80811C42.4597 6.8047 42.465 6.79702 42.4667 6.79522C36.7463 10.1454 34.8058 16.3428 34.6274 19.4434C34.8927 19.425 35.1573 19.4028 35.4273 19.4028C39.6963 19.4028 43.4143 21.7498 45.405 25.2287C44.1891 24.3745 42.0118 23.5309 39.9142 23.8957C48.1049 27.9905 45.906 42.0911 34.5564 41.5587C33.5456 41.5175 32.5468 41.3249 31.5933 40.9873C31.3678 40.9025 31.1447 40.8113 30.9244 40.7138C30.7959 40.6552 30.6675 40.596 30.5407 40.5305C30.5452 40.5336 30.5515 40.5371 30.5561 40.5399C30.4449 40.4864 30.3343 40.4313 30.2245 40.3748C30.331 40.4257 30.4313 40.4817 30.5407 40.5305C27.7596 39.0932 25.4631 36.3767 25.1762 33.0783C25.1762 33.0783 26.2273 29.1616 32.7028 29.1616C33.4028 29.1616 35.4041 27.2083 35.4412 26.6418C35.4327 26.4569 31.4694 24.8803 29.9243 23.358C29.0987 22.5446 28.7067 22.1525 28.3595 21.8582C28.1711 21.6991 27.9742 21.5505 27.7697 21.4129C27.2507 19.5971 27.2286 17.6749 27.7058 15.8478C25.3665 16.9129 23.547 18.5966 22.2243 20.0833H22.2137C21.311 18.9399 21.3747 15.1681 21.4261 14.3806C21.4153 14.3318 20.7527 14.7246 20.6659 14.7838C19.8693 15.3524 19.1246 15.9904 18.4405 16.6902C17.6623 17.4798 16.9512 18.3329 16.3147 19.2407C14.8505 21.3157 13.8119 23.6605 13.2592 26.1392C13.2483 26.1886 13.2391 26.2398 13.2285 26.2895C13.1856 26.49 12.9929 27.5074 12.966 27.7256C12.968 27.7089 12.9639 27.7424 12.966 27.7256C12.7902 28.7769 12.6781 29.8379 12.6302 30.9027C12.6302 30.9416 12.6278 30.9801 12.6278 31.019C12.6278 43.5937 22.8234 53.7876 35.3996 53.7876C46.6626 53.7876 56.0144 45.6114 57.8452 34.8717C57.8838 34.5803 57.9147 34.2873 57.9487 33.9933C58.4013 30.0884 57.8985 25.9841 56.4717 22.552ZM54.2127 23.7214C54.2138 23.7295 54.2153 23.7379 54.2165 23.7459L54.2157 23.7435L54.2127 23.7214Z" fill="url(#paint11_linear_11_5)"/>
<defs>
<linearGradient id="paint0_linear_11_5" x1="52.3113" y1="14.0742" x2="16.9031" y2="50.5447" gradientUnits="userSpaceOnUse">
<stop stop-color="#FFF44F"/>
<stop offset="0.05" stop-color="#FFF44F"/>
<stop offset="0.37" stop-color="#FF980E"/>
<stop offset="0.53" stop-color="#FF3647"/>
<stop offset="0.7" stop-color="#E31587"/>
<stop offset="1" stop-color="#E31587"/>
</linearGradient>
<radialGradient id="paint1_radial_11_5" cx="0" cy="0" r="1" gradientUnits="userSpaceOnUse" gradientTransform="translate(52.4621 12.0159) scale(58.2173 58.2173)">
<stop stop-color="#FFBD4F"/>
<stop offset="0.13" stop-color="#FFBD4F"/>
<stop offset="0.28" stop-color="#FF980E"/>
<stop offset="0.47" stop-color="#FF3750"/>
<stop offset="0.78" stop-color="#EB0878"/>
<stop offset="0.86" stop-color="#E50080"/>
<stop offset="1" stop-color="#E50080"/>
</radialGradient>
<radialGradient id="paint2_radial_11_5" cx="0" cy="0" r="1" gradientUnits="userSpaceOnUse" gradientTransform="translate(34.9606 31.6261) scale(58.2173 58.2173)">
<stop stop-color="#960E18"/>
<stop offset="0.3" stop-color="#960E18"/>
<stop offset="0.35" stop-color="#B11927" stop-opacity="0.74"/>
<stop offset="0.43" stop-color="#DB293D" stop-opacity="0.34"/>
<stop offset="0.5" stop-color="#F5334B" stop-opacity="0.09"/>
<stop offset="0.53" stop-color="#FF3750" stop-opacity="0"/>
<stop offset="1" stop-color="#FF3750" stop-opacity="0"/>
</radialGradient>
<radialGradient id="paint3_radial_11_5" cx="0" cy="0" r="1" gradientUnits="userSpaceOnUse" gradientTransform="translate(39.8726 4.57019) scale(25.9531 25.9532)">
<stop stop-color="#FFF44F"/>
<stop offset="0.13" stop-color="#FFF44F"/>
<stop offset="0.53" stop-color="#FF980E"/>
<stop offset="1" stop-color="#FF980E"/>
</radialGradient>
<radialGradient id="paint4_radial_11_5" cx="0" cy="0" r="1" gradientUnits="userSpaceOnUse" gradientTransform="translate(29.7769 43.8148) scale(22.1706 22.1706)">
<stop stop-color="#3A8EE6"/>
<stop offset="0.35" stop-color="#3A8EE6"/>
<stop offset="0.67" stop-color="#9059FF"/>
<stop offset="1" stop-color="#C139E6"/>
</radialGradient>
<radialGradient id="paint5_radial_11_5" cx="0" cy="0" r="1" gradientUnits="userSpaceOnUse" gradientTransform="translate(33.2332 26.719) scale(11.7726 13.0807)">
<stop stop-color="#9059FF" stop-opacity="0"/>
<stop offset="0.21" stop-color="#9059FF" stop-opacity="0"/>
<stop offset="0.97" stop-color="#6E008B" stop-opacity="0.6"/>
<stop offset="1" stop-color="#6E008B" stop-opacity="0.6"/>
</radialGradient>
<radialGradient id="paint6_radial_11_5" cx="0" cy="0" r="1" gradientUnits="userSpaceOnUse" gradientTransform="translate(33.8682 10.2841) scale(16.1389)">
<stop stop-color="#FFE226"/>
<stop offset="0.1" stop-color="#FFE226"/>
<stop offset="0.79" stop-color="#FF7139"/>
<stop offset="1" stop-color="#FF7139"/>
</radialGradient>
<radialGradient id="paint7_radial_11_5" cx="0" cy="0" r="1" gradientUnits="userSpaceOnUse" gradientTransform="translate(48.5623 -0.303559) scale(76.7775 76.7775)">
<stop stop-color="#FFF44F"/>
<stop offset="0.11" stop-color="#FFF44F"/>
<stop offset="0.46" stop-color="#FF980E"/>
<stop offset="0.72" stop-color="#FF3647"/>
<stop offset="0.9" stop-color="#E31587"/>
<stop offset="1" stop-color="#E31587"/>
</radialGradient>
<radialGradient id="paint8_radial_11_5" cx="0" cy="0" r="1" gradientUnits="userSpaceOnUse" gradientTransform="translate(42.138 1.04516) scale(107.384 107.384)">
<stop stop-color="#FFF44F"/>
<stop offset="0.3" stop-color="#FF980E"/>
<stop offset="0.57" stop-color="#FF3647"/>
<stop offset="0.74" stop-color="#E31587"/>
<stop offset="1" stop-color="#E31587"/>
</radialGradient>
<radialGradient id="paint9_radial_11_5" cx="0" cy="0" r="1" gradientUnits="userSpaceOnUse" gradientTransform="translate(34.032 16.0888) scale(44.0815 44.0815)">
<stop stop-color="#FFF44F"/>
<stop offset="0.14" stop-color="#FFF44F"/>
<stop offset="0.48" stop-color="#FF980E"/>
<stop offset="0.66" stop-color="#FF3647"/>
<stop offset="0.9" stop-color="#E31587"/>
<stop offset="1" stop-color="#E31587"/>
</radialGradient>
<radialGradient id="paint10_radial_11_5" cx="0" cy="0" r="1" gradientUnits="userSpaceOnUse" gradientTransform="translate(45.4748 18.6215) scale(52.9845 52.9846)">
<stop stop-color="#FFF44F"/>
<stop offset="0.09" stop-color="#FFF44F"/>
<stop offset="0.63" stop-color="#FF980E"/>
<stop offset="1" stop-color="#FF980E"/>
</radialGradient>
<linearGradient id="paint11_linear_11_5" x1="49.0135" y1="13.3692" x2="20.8146" y2="46.2679" gradientUnits="userSpaceOnUse">
<stop stop-color="#FFF44F" stop-opacity="0.8"/>
<stop offset="0.17" stop-color="#FFF44F" stop-opacity="0.8"/>
<stop offset="0.6" stop-color="#FFF44F" stop-opacity="0"/>
<stop offset="1" stop-color="#FFF44F" stop-opacity="0"/>
</linearGradient>
</defs>
</svg>
