<svg xmlns="http://www.w3.org/2000/svg" width="172" height="60" fill="none" viewBox="0 0 172 60"><rect width="172" height="60" fill="#109ad6" rx="3"/><path fill="#fff" fill-rule="evenodd" d="M134.556 44.743a7.47 7.47 0 0 1-3.938-1.09 8 8 0 0 1-2.916-2.893c-.718-1.223-1.088-2.536-1.088-3.938 0-1.401.37-2.714 1.088-3.937.718-1.202 1.697-2.159 2.916-2.893a7.65 7.65 0 0 1 3.938-1.068c1.415 0 2.72.356 3.939 1.068 1.218.734 2.198 1.691 2.916 2.893.718 1.223 1.088 2.536 1.088 3.937 0 1.402-.37 2.715-1.088 3.938a8 8 0 0 1-2.916 2.893 7.47 7.47 0 0 1-3.939 1.09m0-2.982c.827 0 1.589-.222 2.307-.69a4.77 4.77 0 0 0 1.697-1.801c.414-.757.631-1.58.631-2.448s-.217-1.69-.631-2.447a5.1 5.1 0 0 0-1.697-1.802 4.3 4.3 0 0 0-2.307-.667q-1.207 0-2.284.667c-.718.467-1.306 1.068-1.719 1.824a4.96 4.96 0 0 0-.631 2.425c0 .868.217 1.691.631 2.448a4.8 4.8 0 0 0 1.719 1.802c.718.467 1.479.69 2.284.69M81.958 41.851l1.044 2.626h3.59l-6.07-15.285H76.91l-6.071 15.285h3.59l1.044-2.626zm-3.242-8.12 2.22 5.562h-4.44zM98.036 30.171c-1.305-.645-2.785-.979-4.439-.979h-5.353v15.285h5.353c1.654 0 3.134-.334 4.44-.98q1.957-.968 3.067-2.736c.718-1.157 1.088-2.47 1.088-3.938s-.37-2.78-1.088-3.938c-.74-1.157-1.762-2.069-3.068-2.714m-1.501 10.724c-.74.4-1.589.6-2.524.6h-2.568v-9.322h2.568c.935 0 1.784.2 2.524.579.74.4 1.327.956 1.74 1.668s.61 1.513.61 2.403c0 .912-.196 1.713-.61 2.403a4.4 4.4 0 0 1-1.74 1.669M109.438 29.192c1.654 0 3.134.334 4.439.979s2.329 1.557 3.069 2.714c.718 1.157 1.088 2.47 1.088 3.938s-.37 2.781-1.088 3.938q-1.11 1.769-3.069 2.737c-1.305.645-2.785.979-4.439.979h-5.352V29.192zm.414 12.303c.936 0 1.784-.2 2.524-.6s1.327-.957 1.741-1.669c.413-.69.609-1.49.609-2.403 0-.89-.196-1.69-.609-2.403a4.4 4.4 0 0 0-1.741-1.668c-.74-.379-1.588-.579-2.524-.579h-2.568v9.322z" clip-rule="evenodd"/><path fill="#fff" d="M119.339 36.979h5.962v2.759h-5.962zM147.586 29.192h-3.199v15.285h3.199v-9.879l7.224 9.879h3.199V29.192h-3.199v9.878zM80.472 20.032h-4.315v1.53h2.525v1.862a3.76 3.76 0 0 1-2.231.75 3.2 3.2 0 0 1-1.718-.495 3.56 3.56 0 0 1-1.277-1.336 3.66 3.66 0 0 1-.47-1.801c0-.645.162-1.246.47-1.801a3.5 3.5 0 0 1 1.277-1.32 3.2 3.2 0 0 1 1.718-.496q.749 0 1.497.315c.499.225.91.51 1.218.886l1.306-1.246c-.484-.51-1.1-.915-1.82-1.216q-1.079-.45-2.201-.45-1.432 0-2.643.72a5.35 5.35 0 0 0-1.952 1.952 5.03 5.03 0 0 0-.734 2.656c0 .946.235 1.831.734 2.656a5.35 5.35 0 0 0 1.952 1.952 4.95 4.95 0 0 0 2.642.735q1.101 0 2.202-.45c.72-.3 1.336-.706 1.82-1.231zM83.833 17.106h5.754v-1.71h-7.59v10.31h7.59v-1.711h-5.754v-2.687h5.21v-1.71h-5.21zM93.857 17.106h-3.23v-1.71h8.279v1.71h-3.215v8.6h-1.835zM103.435 17.106h3.229v8.6h1.835v-8.6h3.214v-1.71h-8.278zM119.91 15.395h1.82v10.31h-1.82v-4.397h-5.035v4.398h-1.835v-10.31h1.835v4.201h5.035zM125.436 17.106h5.754v-1.71h-7.589v10.31h7.589v-1.711h-5.754v-2.687h5.211v-1.71h-5.211z"/><path fill="url(#a)" d="M56.472 22.552c-.99-2.38-2.994-4.95-4.568-5.763 1.28 2.511 2.022 5.03 2.306 6.911l.004.038c-2.575-6.418-6.941-9.006-10.506-14.64-.18-.286-.36-.572-.537-.873a7 7 0 0 1-.25-.47 4 4 0 0 1-.34-.901.06.06 0 0 0-.053-.062.1.1 0 0 0-.042 0l-.012.007-.016.01.009-.014c-5.72 3.35-7.66 9.548-7.84 12.648a11.4 11.4 0 0 0-6.266 2.415 7 7 0 0 0-.59-.445 10.55 10.55 0 0 1-.064-5.565c-2.34 1.065-4.159 2.749-5.482 4.236h-.01c-.903-1.144-.84-4.916-.788-5.703-.01-.049-.673.344-.76.403a16.6 16.6 0 0 0-2.225 1.906c-.779.79-1.49 1.643-2.127 2.55l-.001.004.001-.003a19.2 19.2 0 0 0-3.056 6.898l-.03.15c-.043.201-.197 1.204-.224 1.422l-.005.05a22 22 0 0 0-.37 3.141l-.002.116c0 12.576 10.196 22.77 22.772 22.77 11.263 0 20.615-8.177 22.446-18.916.038-.292.069-.585.103-.879.453-3.905-.05-8.009-1.477-11.441M30.226 40.375c.106.05.206.106.316.155l.015.01a12 12 0 0 1-.331-.165m23.99-16.631-.003-.023.004.025z"/><path fill="url(#b)" d="M56.472 22.552c-.99-2.38-2.994-4.95-4.568-5.763 1.28 2.511 2.022 5.03 2.305 6.91q0-.006.004.022l.004.025c2.148 5.824.978 11.747-.709 15.366-2.61 5.6-8.927 11.34-18.816 11.06-10.684-.303-20.096-8.23-21.853-18.613-.32-1.637 0-2.469.16-3.798-.196 1.025-.27 1.32-.369 3.142l-.002.116c0 12.575 10.196 22.768 22.772 22.768 11.263 0 20.615-8.176 22.445-18.915.039-.292.07-.585.104-.879.453-3.905-.05-8.01-1.477-11.441"/><path fill="url(#c)" d="M56.472 22.552c-.99-2.38-2.994-4.95-4.568-5.763 1.28 2.511 2.022 5.03 2.305 6.91q0-.006.004.022l.004.025c2.148 5.824.978 11.747-.709 15.366-2.61 5.6-8.927 11.34-18.816 11.06-10.684-.303-20.096-8.23-21.853-18.613-.32-1.637 0-2.469.16-3.798-.196 1.025-.27 1.32-.369 3.142l-.002.116c0 12.575 10.196 22.768 22.772 22.768 11.263 0 20.615-8.176 22.445-18.915.039-.292.07-.585.104-.879.453-3.905-.05-8.01-1.477-11.441"/><path fill="url(#d)" d="M45.41 25.229q.072.051.14.104a12.4 12.4 0 0 0-2.113-2.759c-7.08-7.078-1.857-15.346-.976-15.766l.01-.013c-5.72 3.35-7.661 9.547-7.84 12.648.266-.018.53-.04.8-.04 4.27 0 7.987 2.346 9.978 5.826"/><path fill="url(#e)" d="M35.438 26.642c-.037.567-2.039 2.52-2.739 2.52-6.475 0-7.526 3.917-7.526 3.917.287 3.298 2.583 6.014 5.364 7.451q.19.097.384.184.33.146.669.273c.953.338 1.952.53 2.963.572 11.35.532 13.548-13.569 5.358-17.663 2.097-.365 4.274.479 5.49 1.333-1.99-3.48-5.709-5.826-9.977-5.826-.27 0-.535.022-.8.04a11.4 11.4 0 0 0-6.268 2.415c.348.294.74.687 1.565 1.5 1.545 1.523 5.508 3.1 5.517 3.284"/><path fill="url(#f)" d="M35.438 26.642c-.037.567-2.039 2.52-2.739 2.52-6.475 0-7.526 3.917-7.526 3.917.287 3.298 2.583 6.014 5.364 7.451q.19.097.384.184.33.146.669.273c.953.338 1.952.53 2.963.572 11.35.532 13.548-13.569 5.358-17.663 2.097-.365 4.274.479 5.49 1.333-1.99-3.48-5.709-5.826-9.977-5.826-.27 0-.535.022-.8.04a11.4 11.4 0 0 0-6.268 2.415c.348.294.74.687 1.565 1.5 1.545 1.523 5.508 3.1 5.517 3.284"/><path fill="url(#g)" d="M27.296 21.102q.238.153.472.312a10.55 10.55 0 0 1-.064-5.565c-2.339 1.065-4.158 2.749-5.481 4.236.11-.003 3.412-.063 5.073 1.017"/><path fill="url(#h)" d="M12.843 31.56c1.757 10.383 11.17 18.31 21.854 18.613 9.888.28 16.206-5.46 18.816-11.06 1.686-3.62 2.857-9.541.708-15.366v-.003l-.003-.022c-.003-.017-.004-.027-.004-.021l.005.038c.807 5.274-1.876 10.383-6.07 13.838l-.012.03C39.965 44.26 32.145 41.62 30.56 40.54a14 14 0 0 1-.331-.165c-4.765-2.277-6.733-6.618-6.31-10.34-4.024 0-5.396-3.394-5.396-3.394s3.612-2.575 8.373-.335c4.409 2.075 8.55.336 8.55.335-.009-.184-3.972-1.761-5.517-3.283-.826-.814-1.218-1.206-1.565-1.5a7 7 0 0 0-.59-.445 26 26 0 0 0-.472-.313c-1.66-1.08-4.964-1.02-5.073-1.017h-.01c-.903-1.144-.84-4.915-.788-5.703-.011-.049-.674.344-.76.403a16.6 16.6 0 0 0-2.226 1.907 20 20 0 0 0-2.126 2.55l-.002.004.002-.004a19.2 19.2 0 0 0-3.056 6.899c-.01.05-.82 3.586-.42 5.42"/><path fill="url(#i)" d="M43.432 22.574c.83.816 1.542 1.744 2.114 2.759.125.094.242.188.342.28 5.162 4.756 2.457 11.484 2.255 11.963 4.194-3.455 6.877-8.564 6.07-13.838-2.575-6.418-6.942-9.006-10.507-14.64-.18-.286-.36-.572-.536-.873a7 7 0 0 1-.251-.47 4.1 4.1 0 0 1-.34-.901.06.06 0 0 0-.052-.062.1.1 0 0 0-.043 0l-.011.007-.017.01c-.88.419-6.103 8.687.976 15.765"/><path fill="url(#j)" d="M45.885 25.613a5 5 0 0 0-.342-.28l-.141-.104c-1.216-.854-3.394-1.697-5.491-1.332 8.19 4.094 5.992 18.195-5.358 17.663a10.1 10.1 0 0 1-2.963-.572 13 13 0 0 1-.669-.273 9 9 0 0 1-.384-.184l.016.01c1.583 1.08 9.403 3.72 17.575-2.934l.013-.03c.202-.48 2.906-7.207-2.256-11.964"/><path fill="url(#k)" d="M25.175 33.08s1.05-3.917 7.526-3.917c.7 0 2.701-1.954 2.739-2.52s-4.141 1.739-8.55-.336c-4.76-2.24-8.373.336-8.373.336s1.372 3.393 5.395 3.393c-.422 3.722 1.546 8.063 6.31 10.34.107.05.207.106.316.155-2.78-1.437-5.077-4.153-5.364-7.452"/><path fill="url(#l)" d="M56.472 22.552c-.99-2.38-2.995-4.95-4.569-5.763 1.282 2.511 2.023 5.03 2.306 6.911l.005.038c-2.575-6.418-6.941-9.006-10.507-14.64-.18-.286-.36-.572-.536-.873a7 7 0 0 1-.25-.47 4.1 4.1 0 0 1-.341-.901.06.06 0 0 0-.052-.062.1.1 0 0 0-.043 0l-.011.007-.017.01.01-.014c-5.72 3.35-7.661 9.548-7.84 12.648.266-.018.53-.04.8-.04 4.27 0 7.987 2.347 9.978 5.826-1.216-.854-3.393-1.698-5.49-1.333 8.19 4.095 5.991 18.195-5.359 17.663a10.1 10.1 0 0 1-2.963-.572 13 13 0 0 1-.669-.273 9 9 0 0 1-.383-.183l.015.009a14 14 0 0 1-.332-.165c.107.05.207.107.317.156-2.781-1.438-5.078-4.154-5.365-7.453 0 0 1.051-3.916 7.527-3.916.7 0 2.701-1.954 2.738-2.52-.008-.185-3.972-1.762-5.517-3.284-.825-.813-1.217-1.206-1.564-1.5a7 7 0 0 0-.59-.445 10.55 10.55 0 0 1-.064-5.565c-2.34 1.065-4.159 2.749-5.482 4.235h-.01c-.903-1.143-.84-4.915-.788-5.702-.01-.05-.673.344-.76.403a16.6 16.6 0 0 0-2.226 1.906c-.778.79-1.489 1.643-2.125 2.55a19.2 19.2 0 0 0-3.056 6.9l-.03.15c-.043.2-.236 1.217-.263 1.436.002-.017-.002.016 0 0a27 27 0 0 0-.336 3.177l-.002.116c0 12.575 10.195 22.769 22.772 22.769 11.263 0 20.614-8.177 22.445-18.916.039-.292.07-.585.104-.879.452-3.905-.05-8.009-1.477-11.441m-2.26 1.17.005.024-.001-.002z"/><defs><radialGradient id="b" cx="0" cy="0" r="1" gradientTransform="translate(52.462 12.016)scale(58.2173)" gradientUnits="userSpaceOnUse"><stop stop-color="#ffbd4f"/><stop offset=".13" stop-color="#ffbd4f"/><stop offset=".28" stop-color="#ff980e"/><stop offset=".47" stop-color="#ff3750"/><stop offset=".78" stop-color="#eb0878"/><stop offset=".86" stop-color="#e50080"/><stop offset="1" stop-color="#e50080"/></radialGradient><radialGradient id="c" cx="0" cy="0" r="1" gradientTransform="translate(34.96 31.626)scale(58.2173)" gradientUnits="userSpaceOnUse"><stop stop-color="#960e18"/><stop offset=".3" stop-color="#960e18"/><stop offset=".35" stop-color="#b11927" stop-opacity=".74"/><stop offset=".43" stop-color="#db293d" stop-opacity=".34"/><stop offset=".5" stop-color="#f5334b" stop-opacity=".09"/><stop offset=".53" stop-color="#ff3750" stop-opacity="0"/><stop offset="1" stop-color="#ff3750" stop-opacity="0"/></radialGradient><radialGradient id="d" cx="0" cy="0" r="1" gradientTransform="matrix(25.9531 0 0 25.9532 39.873 4.57)" gradientUnits="userSpaceOnUse"><stop stop-color="#fff44f"/><stop offset=".13" stop-color="#fff44f"/><stop offset=".53" stop-color="#ff980e"/><stop offset="1" stop-color="#ff980e"/></radialGradient><radialGradient id="e" cx="0" cy="0" r="1" gradientTransform="translate(29.777 43.815)scale(22.1706)" gradientUnits="userSpaceOnUse"><stop stop-color="#3a8ee6"/><stop offset=".35" stop-color="#3a8ee6"/><stop offset=".67" stop-color="#9059ff"/><stop offset="1" stop-color="#c139e6"/></radialGradient><radialGradient id="f" cx="0" cy="0" r="1" gradientTransform="matrix(11.7726 0 0 13.0807 33.233 26.719)" gradientUnits="userSpaceOnUse"><stop stop-color="#9059ff" stop-opacity="0"/><stop offset=".21" stop-color="#9059ff" stop-opacity="0"/><stop offset=".97" stop-color="#6e008b" stop-opacity=".6"/><stop offset="1" stop-color="#6e008b" stop-opacity=".6"/></radialGradient><radialGradient id="g" cx="0" cy="0" r="1" gradientTransform="translate(33.868 10.284)scale(16.1389)" gradientUnits="userSpaceOnUse"><stop stop-color="#ffe226"/><stop offset=".1" stop-color="#ffe226"/><stop offset=".79" stop-color="#ff7139"/><stop offset="1" stop-color="#ff7139"/></radialGradient><radialGradient id="h" cx="0" cy="0" r="1" gradientTransform="translate(48.562 -.304)scale(76.7775)" gradientUnits="userSpaceOnUse"><stop stop-color="#fff44f"/><stop offset=".11" stop-color="#fff44f"/><stop offset=".46" stop-color="#ff980e"/><stop offset=".72" stop-color="#ff3647"/><stop offset=".9" stop-color="#e31587"/><stop offset="1" stop-color="#e31587"/></radialGradient><radialGradient id="i" cx="0" cy="0" r="1" gradientTransform="translate(42.138 1.045)scale(107.384)" gradientUnits="userSpaceOnUse"><stop stop-color="#fff44f"/><stop offset=".3" stop-color="#ff980e"/><stop offset=".57" stop-color="#ff3647"/><stop offset=".74" stop-color="#e31587"/><stop offset="1" stop-color="#e31587"/></radialGradient><radialGradient id="j" cx="0" cy="0" r="1" gradientTransform="translate(34.032 16.089)scale(44.0815)" gradientUnits="userSpaceOnUse"><stop stop-color="#fff44f"/><stop offset=".14" stop-color="#fff44f"/><stop offset=".48" stop-color="#ff980e"/><stop offset=".66" stop-color="#ff3647"/><stop offset=".9" stop-color="#e31587"/><stop offset="1" stop-color="#e31587"/></radialGradient><radialGradient id="k" cx="0" cy="0" r="1" gradientTransform="matrix(52.9845 0 0 52.9846 45.475 18.622)" gradientUnits="userSpaceOnUse"><stop stop-color="#fff44f"/><stop offset=".09" stop-color="#fff44f"/><stop offset=".63" stop-color="#ff980e"/><stop offset="1" stop-color="#ff980e"/></radialGradient><linearGradient id="a" x1="52.311" x2="16.903" y1="14.074" y2="50.545" gradientUnits="userSpaceOnUse"><stop stop-color="#fff44f"/><stop offset=".05" stop-color="#fff44f"/><stop offset=".37" stop-color="#ff980e"/><stop offset=".53" stop-color="#ff3647"/><stop offset=".7" stop-color="#e31587"/><stop offset="1" stop-color="#e31587"/></linearGradient><linearGradient id="l" x1="49.014" x2="20.815" y1="13.369" y2="46.268" gradientUnits="userSpaceOnUse"><stop stop-color="#fff44f" stop-opacity=".8"/><stop offset=".17" stop-color="#fff44f" stop-opacity=".8"/><stop offset=".6" stop-color="#fff44f" stop-opacity="0"/><stop offset="1" stop-color="#fff44f" stop-opacity="0"/></linearGradient></defs></svg>